<?xml version="1.0" encoding="utf-8" standalone="no"?>
<!DOCTYPE svg PUBLIC "-//W3C//DTD SVG 1.1//EN"
  "http://www.w3.org/Graphics/SVG/1.1/DTD/svg11.dtd">
<svg xmlns:xlink="http://www.w3.org/1999/xlink" width="792pt" height="684pt" viewBox="0 0 792 684" xmlns="http://www.w3.org/2000/svg" version="1.1">
 <metadata>
  <rdf:RDF xmlns:dc="http://purl.org/dc/elements/1.1/" xmlns:cc="http://creativecommons.org/ns#" xmlns:rdf="http://www.w3.org/1999/02/22-rdf-syntax-ns#">
   <cc:Work>
    <dc:type rdf:resource="http://purl.org/dc/dcmitype/StillImage"/>
    <dc:date>2026-05-03T18:37:36.281686</dc:date>
    <dc:format>image/svg+xml</dc:format>
    <dc:creator>
     <cc:Agent>
      <dc:title>Matplotlib v3.10.8, https://matplotlib.org/</dc:title>
     </cc:Agent>
    </dc:creator>
   </cc:Work>
  </rdf:RDF>
 </metadata>
 <defs>
  <style type="text/css">*{stroke-linejoin: round; stroke-linecap: butt}</style>
 </defs>
 <g id="figure_1">
  <g id="patch_1">
   <path d="M 0 684 
L 792 684 
L 792 0 
L 0 0 
z
" style="fill: #f5f1e8"/>
  </g>
  <g id="axes_1">
   <g id="patch_2">
    <path d="M 79.2 519.84 
L 744.48 519.84 
L 744.48 123.12 
L 79.2 123.12 
z
" style="fill: #f5f1e8"/>
   </g>
   <g id="matplotlib.axis_1">
    <g id="xtick_1">
     <g id="text_1">
      <!-- 0.3 -->
      <g style="fill: #8a8a8a" transform="translate(165.276192 536.025) scale(0.14 -0.14)">
       <defs>
        <path id="Inter-Regular-30" d="M 2019 -63 
Q 1500 -63 1134 218 
Q 769 500 575 1033 
Q 381 1566 381 2325 
Q 381 3081 576 3615 
Q 772 4150 1137 4434 
Q 1503 4719 2019 4719 
Q 2534 4719 2901 4434 
Q 3269 4150 3462 3615 
Q 3656 3081 3656 2325 
Q 3656 1569 3464 1034 
Q 3272 500 2906 218 
Q 2541 -63 2019 -63 
z
M 2019 456 
Q 2359 456 2596 678 
Q 2834 900 2959 1317 
Q 3084 1734 3084 2325 
Q 3084 2919 2959 3339 
Q 2834 3759 2596 3981 
Q 2359 4203 2019 4203 
Q 1678 4203 1440 3979 
Q 1203 3756 1078 3337 
Q 953 2919 953 2325 
Q 953 1734 1078 1317 
Q 1203 900 1440 678 
Q 1678 456 2019 456 
z
" transform="scale(0.015625)"/>
        <path id="Inter-Regular-2e" d="M 922 -41 
Q 747 -41 623 82 
Q 500 206 500 381 
Q 500 556 623 679 
Q 747 803 922 803 
Q 1097 803 1220 679 
Q 1344 556 1344 381 
Q 1344 206 1220 82 
Q 1097 -41 922 -41 
z
" transform="scale(0.015625)"/>
        <path id="Inter-Regular-33" d="M 1984 -63 
Q 1528 -63 1175 93 
Q 822 250 614 528 
Q 406 806 391 1175 
L 991 1175 
Q 1009 953 1142 792 
Q 1275 631 1492 545 
Q 1709 459 1975 459 
Q 2269 459 2495 561 
Q 2722 663 2853 847 
Q 2984 1031 2984 1272 
Q 2984 1525 2857 1717 
Q 2731 1909 2490 2018 
Q 2250 2128 1903 2128 
L 1525 2128 
L 1525 2644 
L 1903 2644 
Q 2175 2644 2383 2742 
Q 2591 2841 2706 3019 
Q 2822 3197 2822 3438 
Q 2822 3669 2720 3841 
Q 2619 4013 2431 4108 
Q 2244 4203 1991 4203 
Q 1753 4203 1545 4117 
Q 1338 4031 1205 3872 
Q 1072 3713 1063 3484 
L 491 3484 
Q 503 3850 709 4128 
Q 916 4406 1255 4562 
Q 1594 4719 2003 4719 
Q 2438 4719 2752 4544 
Q 3066 4369 3234 4084 
Q 3403 3800 3403 3469 
Q 3403 3075 3195 2800 
Q 2988 2525 2631 2419 
L 2631 2381 
Q 2928 2334 3139 2181 
Q 3350 2028 3461 1793 
Q 3572 1559 3572 1266 
Q 3572 884 3365 584 
Q 3159 284 2800 110 
Q 2441 -63 1984 -63 
z
" transform="scale(0.015625)"/>
       </defs>
       <use xlink:href="#Inter-Regular-30"/>
       <use xlink:href="#Inter-Regular-2e" transform="translate(63.085938 0)"/>
       <use xlink:href="#Inter-Regular-33" transform="translate(91.894531 0)"/>
      </g>
     </g>
    </g>
    <g id="xtick_2">
     <g id="text_2">
      <!-- 0.4 -->
      <g style="fill: #8a8a8a" transform="translate(297.634413 536.025) scale(0.14 -0.14)">
       <defs>
        <path id="Inter-Regular-34" d="M 375 947 
L 375 1431 
L 2413 4656 
L 2772 4656 
L 2772 3913 
L 2531 3913 
L 1009 1506 
L 1009 1469 
L 3766 1469 
L 3766 947 
L 375 947 
z
M 2566 0 
L 2566 1091 
L 2569 1319 
L 2569 4656 
L 3134 4656 
L 3134 0 
L 2566 0 
z
" transform="scale(0.015625)"/>
       </defs>
       <use xlink:href="#Inter-Regular-30"/>
       <use xlink:href="#Inter-Regular-2e" transform="translate(63.085938 0)"/>
       <use xlink:href="#Inter-Regular-34" transform="translate(91.894531 0)"/>
      </g>
     </g>
    </g>
    <g id="xtick_3">
     <g id="text_3">
      <!-- 0.5 -->
      <g style="fill: #8a8a8a" transform="translate(430.559196 536.025) scale(0.14 -0.14)">
       <defs>
        <path id="Inter-Regular-35" d="M 1863 -63 
Q 1453 -63 1128 98 
Q 803 259 609 539 
Q 416 819 400 1175 
L 975 1175 
Q 994 969 1116 806 
Q 1238 644 1433 551 
Q 1628 459 1863 459 
Q 2144 459 2364 590 
Q 2584 722 2709 953 
Q 2834 1184 2834 1478 
Q 2834 1778 2703 2015 
Q 2572 2253 2345 2389 
Q 2119 2525 1825 2525 
Q 1609 2525 1387 2456 
Q 1166 2388 1028 2281 
L 472 2350 
L 747 4656 
L 3197 4656 
L 3197 4134 
L 1247 4134 
L 1088 2775 
L 1113 2775 
Q 1256 2894 1475 2970 
Q 1694 3047 1934 3047 
Q 2253 3047 2523 2931 
Q 2794 2816 2994 2605 
Q 3194 2394 3305 2109 
Q 3416 1825 3416 1488 
Q 3416 1041 3214 691 
Q 3013 341 2663 139 
Q 2313 -63 1863 -63 
z
" transform="scale(0.015625)"/>
       </defs>
       <use xlink:href="#Inter-Regular-30"/>
       <use xlink:href="#Inter-Regular-2e" transform="translate(63.085938 0)"/>
       <use xlink:href="#Inter-Regular-35" transform="translate(91.894531 0)"/>
      </g>
     </g>
    </g>
    <g id="xtick_4">
     <g id="text_4">
      <!-- 0.6 -->
      <g style="fill: #8a8a8a" transform="translate(562.92726 536.025) scale(0.14 -0.14)">
       <defs>
        <path id="Inter-Regular-36" d="M 2019 -63 
Q 1728 -63 1437 43 
Q 1147 150 908 400 
Q 669 650 525 1078 
Q 381 1506 381 2150 
Q 381 2766 498 3242 
Q 616 3719 839 4048 
Q 1063 4378 1378 4548 
Q 1694 4719 2091 4719 
Q 2481 4719 2790 4562 
Q 3100 4406 3297 4128 
Q 3494 3850 3550 3484 
L 2969 3484 
Q 2891 3788 2672 3991 
Q 2453 4194 2091 4194 
Q 1734 4194 1476 3984 
Q 1219 3775 1081 3379 
Q 944 2984 944 2425 
L 981 2425 
Q 1106 2619 1281 2758 
Q 1456 2897 1672 2970 
Q 1888 3044 2128 3044 
Q 2528 3044 2859 2847 
Q 3191 2650 3389 2301 
Q 3588 1953 3588 1503 
Q 3588 1069 3394 714 
Q 3200 359 2847 148 
Q 2494 -63 2019 -63 
z
M 2019 459 
Q 2300 459 2525 600 
Q 2750 741 2881 977 
Q 3013 1213 3013 1503 
Q 3013 1788 2886 2020 
Q 2759 2253 2537 2390 
Q 2316 2528 2034 2528 
Q 1822 2528 1639 2445 
Q 1456 2363 1318 2217 
Q 1181 2072 1104 1886 
Q 1028 1700 1028 1497 
Q 1028 1222 1156 986 
Q 1284 750 1509 604 
Q 1734 459 2019 459 
z
" transform="scale(0.015625)"/>
       </defs>
       <use xlink:href="#Inter-Regular-30"/>
       <use xlink:href="#Inter-Regular-2e" transform="translate(63.085938 0)"/>
       <use xlink:href="#Inter-Regular-36" transform="translate(91.894531 0)"/>
      </g>
     </g>
    </g>
    <g id="xtick_5">
     <g id="text_5">
      <!-- 0.7 -->
      <g style="fill: #8a8a8a" transform="translate(695.862981 536.025) scale(0.14 -0.14)">
       <defs>
        <path id="Inter-Regular-37" d="M 625 0 
L 2694 4097 
L 2694 4134 
L 306 4134 
L 306 4656 
L 3316 4656 
L 3316 4103 
L 1250 0 
L 625 0 
z
" transform="scale(0.015625)"/>
       </defs>
       <use xlink:href="#Inter-Regular-30"/>
       <use xlink:href="#Inter-Regular-2e" transform="translate(63.085938 0)"/>
       <use xlink:href="#Inter-Regular-37" transform="translate(91.894531 0)"/>
      </g>
     </g>
    </g>
    <g id="text_6">
     <!-- DINO score → subject identity fidelity -->
     <g style="fill: #8a8a8a" transform="translate(288.29 563.545938) scale(0.14 -0.14)">
      <defs>
       <path id="Inter-Regular-44" d="M 2016 0 
L 891 0 
L 891 525 
L 1978 525 
Q 2547 525 2920 742 
Q 3294 959 3478 1365 
Q 3663 1772 3663 2338 
Q 3663 2897 3480 3298 
Q 3297 3700 2936 3915 
Q 2575 4131 2034 4131 
L 866 4131 
L 866 4656 
L 2075 4656 
Q 2756 4656 3239 4378 
Q 3722 4100 3980 3579 
Q 4238 3059 4238 2338 
Q 4238 1609 3978 1086 
Q 3719 563 3222 281 
Q 2725 0 2016 0 
z
M 1156 4656 
L 1156 0 
L 563 0 
L 563 4656 
L 1156 4656 
z
" transform="scale(0.015625)"/>
       <path id="Inter-Regular-49" d="M 1156 4656 
L 1156 0 
L 563 0 
L 563 4656 
L 1156 4656 
z
" transform="scale(0.015625)"/>
       <path id="Inter-Regular-4e" d="M 563 0 
L 563 4656 
L 1263 4656 
L 3156 1678 
Q 3231 1563 3337 1381 
Q 3444 1200 3567 972 
Q 3691 744 3809 484 
L 3725 484 
Q 3697 753 3684 998 
Q 3672 1244 3669 1450 
Q 3666 1656 3666 1800 
L 3666 4656 
L 4259 4656 
L 4259 0 
L 3553 0 
L 1866 2650 
Q 1750 2834 1633 3029 
Q 1516 3225 1366 3492 
Q 1216 3759 994 4153 
L 1103 4153 
Q 1119 3806 1131 3512 
Q 1144 3219 1151 3000 
Q 1159 2781 1159 2656 
L 1159 0 
L 563 0 
z
" transform="scale(0.015625)"/>
       <path id="Inter-Regular-4f" d="M 2450 -63 
Q 1853 -63 1386 226 
Q 919 516 650 1052 
Q 381 1588 381 2325 
Q 381 3066 650 3602 
Q 919 4138 1386 4428 
Q 1853 4719 2450 4719 
Q 3047 4719 3512 4428 
Q 3978 4138 4245 3602 
Q 4513 3066 4513 2325 
Q 4513 1588 4245 1052 
Q 3978 516 3512 226 
Q 3047 -63 2450 -63 
z
M 2450 488 
Q 2866 488 3202 698 
Q 3538 909 3736 1320 
Q 3934 1731 3934 2325 
Q 3934 2925 3736 3336 
Q 3538 3747 3202 3958 
Q 2866 4169 2450 4169 
Q 2031 4169 1693 3956 
Q 1356 3744 1157 3333 
Q 959 2922 959 2325 
Q 959 1731 1157 1322 
Q 1356 913 1693 700 
Q 2031 488 2450 488 
z
" transform="scale(0.015625)"/>
       <path id="Inter-Regular-20" transform="scale(0.015625)"/>
       <path id="Inter-Regular-73" d="M 1681 -75 
Q 1322 -75 1042 29 
Q 763 134 581 340 
Q 400 547 338 847 
L 872 975 
Q 947 688 1155 553 
Q 1363 419 1675 419 
Q 2041 419 2258 575 
Q 2475 731 2475 947 
Q 2475 1128 2348 1248 
Q 2222 1369 1963 1428 
L 1381 1566 
Q 906 1678 675 1914 
Q 444 2150 444 2519 
Q 444 2819 612 3048 
Q 781 3278 1073 3408 
Q 1366 3538 1738 3538 
Q 2097 3538 2348 3430 
Q 2600 3322 2758 3133 
Q 2916 2944 2994 2697 
L 2484 2566 
Q 2413 2753 2245 2906 
Q 2078 3059 1741 3059 
Q 1428 3059 1220 2915 
Q 1013 2772 1013 2553 
Q 1013 2359 1153 2242 
Q 1294 2125 1600 2053 
L 2128 1928 
Q 2603 1816 2831 1580 
Q 3059 1344 3059 984 
Q 3059 678 2886 439 
Q 2713 200 2402 62 
Q 2091 -75 1681 -75 
z
" transform="scale(0.015625)"/>
       <path id="Inter-Regular-63" d="M 1916 -75 
Q 1441 -75 1083 150 
Q 725 375 525 781 
Q 325 1188 325 1725 
Q 325 2272 525 2680 
Q 725 3088 1083 3313 
Q 1441 3538 1916 3538 
Q 2169 3538 2394 3472 
Q 2619 3406 2805 3282 
Q 2991 3159 3125 2979 
Q 3259 2800 3331 2572 
L 2791 2419 
Q 2753 2553 2675 2665 
Q 2597 2778 2486 2861 
Q 2375 2944 2231 2989 
Q 2088 3034 1916 3034 
Q 1566 3034 1341 2851 
Q 1116 2669 1006 2372 
Q 897 2075 897 1725 
Q 897 1381 1006 1086 
Q 1116 791 1341 609 
Q 1566 428 1916 428 
Q 2091 428 2237 475 
Q 2384 522 2498 608 
Q 2613 694 2691 812 
Q 2769 931 2806 1072 
L 3344 919 
Q 3275 684 3139 501 
Q 3003 319 2815 189 
Q 2628 59 2400 -8 
Q 2172 -75 1916 -75 
z
" transform="scale(0.015625)"/>
       <path id="Inter-Regular-6f" d="M 1916 -75 
Q 1441 -75 1083 150 
Q 725 375 525 781 
Q 325 1188 325 1725 
Q 325 2272 525 2680 
Q 725 3088 1083 3313 
Q 1441 3538 1916 3538 
Q 2394 3538 2753 3313 
Q 3113 3088 3313 2680 
Q 3513 2272 3513 1725 
Q 3513 1188 3313 781 
Q 3113 375 2753 150 
Q 2394 -75 1916 -75 
z
M 1916 428 
Q 2269 428 2497 609 
Q 2725 791 2834 1086 
Q 2944 1381 2944 1725 
Q 2944 2072 2834 2370 
Q 2725 2669 2497 2851 
Q 2269 3034 1916 3034 
Q 1566 3034 1341 2851 
Q 1116 2669 1006 2372 
Q 897 2075 897 1725 
Q 897 1381 1006 1086 
Q 1116 791 1341 609 
Q 1566 428 1916 428 
z
" transform="scale(0.015625)"/>
       <path id="Inter-Regular-72" d="M 494 0 
L 494 3494 
L 1038 3494 
L 1038 2956 
L 1075 2956 
Q 1172 3222 1420 3383 
Q 1669 3544 1981 3544 
Q 2044 3544 2130 3541 
Q 2216 3538 2266 3534 
L 2266 2969 
Q 2241 2975 2141 2987 
Q 2041 3000 1928 3000 
Q 1678 3000 1479 2895 
Q 1281 2791 1168 2608 
Q 1056 2425 1056 2188 
L 1056 0 
L 494 0 
z
" transform="scale(0.015625)"/>
       <path id="Inter-Regular-65" d="M 1963 -75 
Q 1456 -75 1089 150 
Q 722 375 523 778 
Q 325 1181 325 1719 
Q 325 2256 519 2665 
Q 713 3075 1067 3306 
Q 1422 3538 1897 3538 
Q 2175 3538 2445 3445 
Q 2716 3353 2936 3148 
Q 3156 2944 3287 2609 
Q 3419 2275 3419 1791 
L 3419 1556 
L 706 1556 
L 706 2031 
L 3116 2031 
L 2853 1856 
Q 2853 2200 2745 2467 
Q 2638 2734 2425 2886 
Q 2213 3038 1897 3038 
Q 1581 3038 1356 2883 
Q 1131 2728 1012 2479 
Q 894 2231 894 1947 
L 894 1631 
Q 894 1244 1028 973 
Q 1163 703 1405 564 
Q 1647 425 1966 425 
Q 2172 425 2340 484 
Q 2509 544 2631 664 
Q 2753 784 2819 963 
L 3363 813 
Q 3281 550 3087 350 
Q 2894 150 2608 37 
Q 2322 -75 1963 -75 
z
" transform="scale(0.015625)"/>
       <path id="Inter-Regular-2192" d="M 3438 0 
L 3075 363 
L 3734 1019 
Q 3856 1138 4001 1267 
Q 4147 1397 4303 1526 
Q 4459 1656 4604 1772 
Q 4750 1888 4872 1978 
L 4784 1878 
Q 4656 1853 4526 1829 
Q 4397 1806 4267 1792 
Q 4138 1778 4006 1778 
L 800 1778 
L 800 2297 
L 4006 2297 
Q 4138 2297 4267 2283 
Q 4397 2269 4526 2247 
Q 4656 2225 4784 2197 
L 4872 2097 
Q 4713 2219 4508 2383 
Q 4303 2547 4100 2722 
Q 3897 2897 3734 3056 
L 3075 3713 
L 3438 4075 
L 5475 2038 
L 3438 0 
z
" transform="scale(0.015625)"/>
       <path id="Inter-Regular-75" d="M 1678 -44 
Q 1325 -44 1058 101 
Q 791 247 642 540 
Q 494 834 494 1275 
L 494 3494 
L 1056 3494 
L 1056 1322 
Q 1056 919 1268 691 
Q 1481 463 1847 463 
Q 2097 463 2295 572 
Q 2494 681 2609 892 
Q 2725 1103 2725 1400 
L 2725 3494 
L 3291 3494 
L 3291 0 
L 2747 0 
L 2747 847 
L 2822 847 
Q 2659 356 2361 156 
Q 2063 -44 1678 -44 
z
" transform="scale(0.015625)"/>
       <path id="Inter-Regular-62" d="M 2116 -75 
Q 1784 -75 1581 39 
Q 1378 153 1268 298 
Q 1159 444 1100 541 
L 1038 541 
L 1038 0 
L 494 0 
L 494 4656 
L 1056 4656 
L 1056 2934 
L 1100 2934 
Q 1159 3028 1265 3170 
Q 1372 3313 1572 3425 
Q 1772 3538 2113 3538 
Q 2550 3538 2883 3319 
Q 3216 3100 3405 2695 
Q 3594 2291 3594 1738 
Q 3594 1181 3406 775 
Q 3219 369 2886 147 
Q 2553 -75 2116 -75 
z
M 2031 428 
Q 2359 428 2579 604 
Q 2800 781 2911 1079 
Q 3022 1378 3022 1744 
Q 3022 2106 2912 2398 
Q 2803 2691 2583 2862 
Q 2363 3034 2031 3034 
Q 1709 3034 1490 2871 
Q 1272 2709 1161 2420 
Q 1050 2131 1050 1744 
Q 1050 1356 1162 1059 
Q 1275 763 1495 595 
Q 1716 428 2031 428 
z
" transform="scale(0.015625)"/>
       <path id="Inter-Regular-6a" d="M 491 3494 
L 1056 3494 
L 1056 -250 
Q 1059 -581 943 -818 
Q 828 -1056 600 -1181 
Q 372 -1306 31 -1306 
L -81 -1306 
L -81 -788 
L 22 -788 
Q 266 -788 378 -648 
Q 491 -509 491 -250 
L 491 3494 
z
M 772 4066 
Q 613 4066 497 4175 
Q 381 4284 381 4438 
Q 381 4594 497 4701 
Q 613 4809 772 4809 
Q 934 4809 1050 4701 
Q 1166 4594 1166 4438 
Q 1166 4284 1050 4175 
Q 934 4066 772 4066 
z
" transform="scale(0.015625)"/>
       <path id="Inter-Regular-74" d="M 1869 3494 
L 1869 3013 
L 63 3013 
L 63 3494 
L 1869 3494 
z
M 588 4325 
L 1150 4325 
L 1150 906 
Q 1150 672 1245 564 
Q 1341 456 1563 456 
Q 1616 456 1698 468 
Q 1781 481 1850 494 
L 1966 19 
Q 1878 -13 1767 -28 
Q 1656 -44 1547 -44 
Q 1094 -44 841 195 
Q 588 434 588 863 
L 588 4325 
z
" transform="scale(0.015625)"/>
       <path id="Inter-Regular-69" d="M 494 0 
L 494 3494 
L 1056 3494 
L 1056 0 
L 494 0 
z
M 780 4066 
Q 621 4066 505 4175 
Q 389 4284 389 4438 
Q 389 4594 505 4701 
Q 621 4809 780 4809 
Q 942 4809 1058 4701 
Q 1174 4594 1174 4438 
Q 1174 4284 1058 4175 
Q 942 4066 780 4066 
z
" transform="scale(0.015625)"/>
       <path id="Inter-Regular-64" d="M 1803 -75 
Q 1369 -75 1034 147 
Q 700 369 512 775 
Q 325 1181 325 1738 
Q 325 2291 514 2695 
Q 703 3100 1037 3319 
Q 1372 3538 1806 3538 
Q 2147 3538 2347 3425 
Q 2547 3313 2655 3170 
Q 2763 3028 2819 2934 
L 2863 2934 
L 2863 4656 
L 3425 4656 
L 3425 0 
L 2881 0 
L 2881 541 
L 2819 541 
Q 2763 444 2652 298 
Q 2541 153 2339 39 
Q 2138 -75 1803 -75 
z
M 1888 428 
Q 2206 428 2425 595 
Q 2644 763 2756 1059 
Q 2869 1356 2869 1744 
Q 2869 2131 2758 2420 
Q 2647 2709 2428 2871 
Q 2209 3034 1888 3034 
Q 1556 3034 1336 2862 
Q 1116 2691 1006 2398 
Q 897 2106 897 1744 
Q 897 1378 1008 1079 
Q 1119 781 1341 604 
Q 1563 428 1888 428 
z
" transform="scale(0.015625)"/>
       <path id="Inter-Regular-6e" d="M 1056 2094 
L 1056 0 
L 494 0 
L 494 3494 
L 1034 3494 
L 1038 2647 
L 959 2647 
Q 1119 3131 1414 3334 
Q 1709 3538 2106 3538 
Q 2459 3538 2725 3392 
Q 2991 3247 3139 2955 
Q 3288 2663 3288 2219 
L 3288 0 
L 2725 0 
L 2725 2172 
Q 2725 2575 2514 2803 
Q 2303 3031 1938 3031 
Q 1688 3031 1488 2922 
Q 1288 2813 1172 2603 
Q 1056 2394 1056 2094 
z
" transform="scale(0.015625)"/>
       <path id="Inter-Regular-79" d="M 438 -1266 
L 581 -778 
L 641 -794 
Q 813 -838 953 -817 
Q 1094 -797 1206 -678 
Q 1319 -559 1403 -309 
L 1503 -19 
L 169 3494 
L 784 3494 
L 1528 1422 
Q 1647 1097 1728 778 
Q 1809 459 1900 159 
L 1694 159 
Q 1784 459 1867 779 
Q 1950 1100 2066 1422 
L 2816 3494 
L 3428 3494 
L 1894 -522 
Q 1788 -800 1639 -979 
Q 1491 -1159 1294 -1245 
Q 1097 -1331 850 -1331 
Q 700 -1331 590 -1309 
Q 481 -1288 438 -1266 
z
" transform="scale(0.015625)"/>
       <path id="Inter-Regular-66" d="M 2119 3494 
L 2119 3013 
L 63 3013 
L 63 3494 
L 2119 3494 
z
M 750 0 
L 750 3959 
Q 750 4263 892 4466 
Q 1034 4669 1262 4772 
Q 1491 4875 1744 4875 
Q 1944 4875 2075 4842 
Q 2206 4809 2269 4781 
L 2113 4300 
Q 2069 4316 1998 4334 
Q 1928 4353 1809 4353 
Q 1550 4353 1431 4220 
Q 1313 4088 1313 3834 
L 1313 0 
L 750 0 
z
" transform="scale(0.015625)"/>
       <path id="Inter-Regular-6c" d="M 1056 4656 
L 1056 0 
L 494 0 
L 494 4656 
L 1056 4656 
z
" transform="scale(0.015625)"/>
      </defs>
      <use xlink:href="#Inter-Regular-44"/>
      <use xlink:href="#Inter-Regular-49" transform="translate(72.167969 0)"/>
      <use xlink:href="#Inter-Regular-4e" transform="translate(99.023438 0)"/>
      <use xlink:href="#Inter-Regular-4f" transform="translate(174.365234 0)"/>
      <use xlink:href="#Inter-Regular-20" transform="translate(250.830078 0)"/>
      <use xlink:href="#Inter-Regular-73" transform="translate(278.955078 0)"/>
      <use xlink:href="#Inter-Regular-63" transform="translate(331.738281 0)"/>
      <use xlink:href="#Inter-Regular-6f" transform="translate(388.867188 0)"/>
      <use xlink:href="#Inter-Regular-72" transform="translate(448.828125 0)"/>
      <use xlink:href="#Inter-Regular-65" transform="translate(486.474609 0)"/>
      <use xlink:href="#Inter-Regular-20" transform="translate(544.775391 0)"/>
      <use xlink:href="#Inter-Regular-2192" transform="translate(572.900391 0)"/>
      <use xlink:href="#Inter-Regular-20" transform="translate(668.310547 0)"/>
      <use xlink:href="#Inter-Regular-73" transform="translate(696.435547 0)"/>
      <use xlink:href="#Inter-Regular-75" transform="translate(749.21875 0)"/>
      <use xlink:href="#Inter-Regular-62" transform="translate(808.349609 0)"/>
      <use xlink:href="#Inter-Regular-6a" transform="translate(869.580078 0)"/>
      <use xlink:href="#Inter-Regular-65" transform="translate(893.798828 0)"/>
      <use xlink:href="#Inter-Regular-63" transform="translate(952.099609 0)"/>
      <use xlink:href="#Inter-Regular-74" transform="translate(1009.228516 0)"/>
      <use xlink:href="#Inter-Regular-20" transform="translate(1041.943359 0)"/>
      <use xlink:href="#Inter-Regular-69" transform="translate(1070.068359 0)"/>
      <use xlink:href="#Inter-Regular-64" transform="translate(1094.287109 0)"/>
      <use xlink:href="#Inter-Regular-65" transform="translate(1155.517578 0)"/>
      <use xlink:href="#Inter-Regular-6e" transform="translate(1213.818359 0)"/>
      <use xlink:href="#Inter-Regular-74" transform="translate(1272.900391 0)"/>
      <use xlink:href="#Inter-Regular-69" transform="translate(1305.615234 0)"/>
      <use xlink:href="#Inter-Regular-74" transform="translate(1329.833984 0)"/>
      <use xlink:href="#Inter-Regular-79" transform="translate(1362.548828 0)"/>
      <use xlink:href="#Inter-Regular-20" transform="translate(1418.75 0)"/>
      <use xlink:href="#Inter-Regular-66" transform="translate(1446.875 0)"/>
      <use xlink:href="#Inter-Regular-69" transform="translate(1483.886719 0)"/>
      <use xlink:href="#Inter-Regular-64" transform="translate(1508.105469 0)"/>
      <use xlink:href="#Inter-Regular-65" transform="translate(1569.335938 0)"/>
      <use xlink:href="#Inter-Regular-6c" transform="translate(1627.636719 0)"/>
      <use xlink:href="#Inter-Regular-69" transform="translate(1651.855469 0)"/>
      <use xlink:href="#Inter-Regular-74" transform="translate(1676.074219 0)"/>
      <use xlink:href="#Inter-Regular-79" transform="translate(1708.789062 0)"/>
     </g>
    </g>
   </g>
   <g id="matplotlib.axis_2">
    <g id="ytick_1">
     <g id="line2d_1">
      <path d="M 79.2 509.620844 
L 744.48 509.620844 
" clip-path="url(#p43db84e62f)" style="fill: none; stroke: #e5e1d8; stroke-width: 0.8; stroke-linecap: square"/>
     </g>
     <g id="text_7">
      <!-- 0.30 -->
      <g style="fill: #8a8a8a" transform="translate(42.852812 514.713344) scale(0.14 -0.14)">
       <use xlink:href="#Inter-Regular-30"/>
       <use xlink:href="#Inter-Regular-2e" transform="translate(63.085938 0)"/>
       <use xlink:href="#Inter-Regular-33" transform="translate(91.894531 0)"/>
       <use xlink:href="#Inter-Regular-30" transform="translate(153.662109 0)"/>
      </g>
     </g>
    </g>
    <g id="ytick_2">
     <g id="line2d_2">
      <path d="M 79.2 424.189595 
L 744.48 424.189595 
" clip-path="url(#p43db84e62f)" style="fill: none; stroke: #e5e1d8; stroke-width: 0.8; stroke-linecap: square"/>
     </g>
     <g id="text_8">
      <!-- 0.31 -->
      <g style="fill: #8a8a8a" transform="translate(45.991875 429.282095) scale(0.14 -0.14)">
       <defs>
        <path id="Inter-Regular-31" d="M 2041 4656 
L 2041 0 
L 1456 0 
L 1456 4106 
L 1425 4106 
L 300 3272 
L 300 3909 
L 1313 4656 
L 2041 4656 
z
" transform="scale(0.015625)"/>
       </defs>
       <use xlink:href="#Inter-Regular-30"/>
       <use xlink:href="#Inter-Regular-2e" transform="translate(63.085938 0)"/>
       <use xlink:href="#Inter-Regular-33" transform="translate(91.894531 0)"/>
       <use xlink:href="#Inter-Regular-31" transform="translate(153.662109 0)"/>
      </g>
     </g>
    </g>
    <g id="ytick_3">
     <g id="line2d_3">
      <path d="M 79.2 338.758346 
L 744.48 338.758346 
" clip-path="url(#p43db84e62f)" style="fill: none; stroke: #e5e1d8; stroke-width: 0.8; stroke-linecap: square"/>
     </g>
     <g id="text_9">
      <!-- 0.32 -->
      <g style="fill: #8a8a8a" transform="translate(43.148125 343.850846) scale(0.14 -0.14)">
       <defs>
        <path id="Inter-Regular-32" d="M 481 0 
L 481 428 
L 2028 2106 
Q 2288 2388 2459 2600 
Q 2631 2813 2718 3005 
Q 2806 3197 2806 3413 
Q 2806 3656 2690 3834 
Q 2575 4013 2378 4108 
Q 2181 4203 1931 4203 
Q 1666 4203 1470 4095 
Q 1275 3988 1169 3792 
Q 1063 3597 1063 3334 
L 494 3334 
Q 494 3747 684 4059 
Q 875 4372 1203 4545 
Q 1531 4719 1947 4719 
Q 2363 4719 2683 4545 
Q 3003 4372 3186 4078 
Q 3369 3784 3369 3419 
Q 3369 3166 3278 2927 
Q 3188 2688 2959 2384 
Q 2731 2081 2319 1644 
L 1300 559 
L 1300 522 
L 3447 522 
L 3447 0 
L 481 0 
z
" transform="scale(0.015625)"/>
       </defs>
       <use xlink:href="#Inter-Regular-30"/>
       <use xlink:href="#Inter-Regular-2e" transform="translate(63.085938 0)"/>
       <use xlink:href="#Inter-Regular-33" transform="translate(91.894531 0)"/>
       <use xlink:href="#Inter-Regular-32" transform="translate(153.662109 0)"/>
      </g>
     </g>
    </g>
    <g id="ytick_4">
     <g id="line2d_4">
      <path d="M 79.2 253.327097 
L 744.48 253.327097 
" clip-path="url(#p43db84e62f)" style="fill: none; stroke: #e5e1d8; stroke-width: 0.8; stroke-linecap: square"/>
     </g>
     <g id="text_10">
      <!-- 0.33 -->
      <g style="fill: #8a8a8a" transform="translate(43.03875 258.419597) scale(0.14 -0.14)">
       <use xlink:href="#Inter-Regular-30"/>
       <use xlink:href="#Inter-Regular-2e" transform="translate(63.085938 0)"/>
       <use xlink:href="#Inter-Regular-33" transform="translate(91.894531 0)"/>
       <use xlink:href="#Inter-Regular-33" transform="translate(153.662109 0)"/>
      </g>
     </g>
    </g>
    <g id="ytick_5">
     <g id="line2d_5">
      <path d="M 79.2 167.895848 
L 744.48 167.895848 
" clip-path="url(#p43db84e62f)" style="fill: none; stroke: #e5e1d8; stroke-width: 0.8; stroke-linecap: square"/>
     </g>
     <g id="text_11">
      <!-- 0.34 -->
      <g style="fill: #8a8a8a" transform="translate(42.642813 172.988348) scale(0.14 -0.14)">
       <use xlink:href="#Inter-Regular-30"/>
       <use xlink:href="#Inter-Regular-2e" transform="translate(63.085938 0)"/>
       <use xlink:href="#Inter-Regular-33" transform="translate(91.894531 0)"/>
       <use xlink:href="#Inter-Regular-34" transform="translate(153.662109 0)"/>
      </g>
     </g>
    </g>
    <g id="text_12">
     <!-- CLIP-T score → prompt fidelity -->
     <g style="fill: #8a8a8a" transform="translate(25.73125 423.897656) rotate(-90) scale(0.14 -0.14)">
      <defs>
       <path id="Inter-Regular-43" d="M 2447 -63 
Q 1850 -63 1383 226 
Q 916 516 648 1052 
Q 381 1588 381 2325 
Q 381 3066 648 3602 
Q 916 4138 1383 4428 
Q 1850 4719 2447 4719 
Q 2800 4719 3114 4616 
Q 3428 4513 3678 4314 
Q 3928 4116 4095 3833 
Q 4263 3550 4325 3191 
L 3731 3191 
Q 3681 3431 3561 3612 
Q 3441 3794 3267 3919 
Q 3094 4044 2884 4106 
Q 2675 4169 2447 4169 
Q 2028 4169 1690 3956 
Q 1353 3744 1156 3333 
Q 959 2922 959 2325 
Q 959 1731 1157 1320 
Q 1356 909 1693 698 
Q 2031 488 2447 488 
Q 2675 488 2884 552 
Q 3094 616 3267 739 
Q 3441 863 3561 1045 
Q 3681 1228 3731 1466 
L 4325 1466 
Q 4266 1109 4098 828 
Q 3931 547 3681 347 
Q 3431 147 3117 42 
Q 2803 -63 2447 -63 
z
" transform="scale(0.015625)"/>
       <path id="Inter-Regular-4c" d="M 563 0 
L 563 4656 
L 1156 4656 
L 1156 525 
L 3313 525 
L 3313 0 
L 563 0 
z
" transform="scale(0.015625)"/>
       <path id="Inter-Regular-50" d="M 563 0 
L 563 4656 
L 2156 4656 
Q 2700 4656 3051 4457 
Q 3403 4259 3573 3925 
Q 3744 3591 3744 3175 
Q 3744 2759 3573 2421 
Q 3403 2084 3053 1884 
Q 2703 1684 2159 1684 
L 1031 1684 
L 1031 2206 
L 2131 2206 
Q 2500 2206 2725 2332 
Q 2950 2459 3051 2679 
Q 3153 2900 3153 3175 
Q 3153 3450 3051 3667 
Q 2950 3884 2723 4009 
Q 2497 4134 2125 4134 
L 1156 4134 
L 1156 0 
L 563 0 
z
" transform="scale(0.015625)"/>
       <path id="Inter-Regular-2d" d="M 2494 2247 
L 2494 1728 
L 450 1728 
L 450 2247 
L 2494 2247 
z
" transform="scale(0.015625)"/>
       <path id="Inter-Regular-54" d="M 306 4131 
L 306 4656 
L 3825 4656 
L 3825 4131 
L 2366 4131 
L 2366 0 
L 1772 0 
L 1772 4131 
L 306 4131 
z
" transform="scale(0.015625)"/>
       <path id="Inter-Regular-70" d="M 494 -1306 
L 494 3494 
L 1038 3494 
L 1038 2934 
L 1100 2934 
Q 1159 3028 1265 3170 
Q 1372 3313 1572 3425 
Q 1772 3538 2113 3538 
Q 2550 3538 2883 3319 
Q 3216 3100 3405 2695 
Q 3594 2291 3594 1738 
Q 3594 1181 3406 775 
Q 3219 369 2886 147 
Q 2553 -75 2116 -75 
Q 1784 -75 1581 39 
Q 1378 153 1268 298 
Q 1159 444 1100 541 
L 1056 541 
L 1056 -1306 
L 494 -1306 
z
M 2031 428 
Q 2359 428 2579 604 
Q 2800 781 2911 1079 
Q 3022 1378 3022 1744 
Q 3022 2106 2912 2398 
Q 2803 2691 2583 2862 
Q 2363 3034 2031 3034 
Q 1709 3034 1490 2871 
Q 1272 2709 1161 2420 
Q 1050 2131 1050 1744 
Q 1050 1356 1162 1059 
Q 1275 763 1495 595 
Q 1716 428 2031 428 
z
" transform="scale(0.015625)"/>
       <path id="Inter-Regular-6d" d="M 494 0 
L 494 3494 
L 1041 3494 
L 1044 2713 
L 1000 2713 
Q 1072 2997 1226 3183 
Q 1381 3369 1589 3462 
Q 1797 3556 2022 3556 
Q 2403 3556 2639 3322 
Q 2875 3088 2944 2706 
L 2869 2706 
Q 2931 2969 3097 3159 
Q 3263 3350 3498 3453 
Q 3734 3556 4013 3556 
Q 4316 3556 4566 3425 
Q 4816 3294 4964 3028 
Q 5113 2763 5113 2356 
L 5113 0 
L 4550 0 
L 4550 2341 
Q 4550 2719 4337 2881 
Q 4125 3044 3844 3044 
Q 3609 3044 3439 2945 
Q 3269 2847 3176 2675 
Q 3084 2503 3084 2281 
L 3084 0 
L 2522 0 
L 2522 2397 
Q 2522 2688 2328 2866 
Q 2134 3044 1838 3044 
Q 1634 3044 1454 2948 
Q 1275 2853 1165 2665 
Q 1056 2478 1056 2200 
L 1056 0 
L 494 0 
z
" transform="scale(0.015625)"/>
      </defs>
      <use xlink:href="#Inter-Regular-43"/>
      <use xlink:href="#Inter-Regular-4c" transform="translate(73.046875 0)"/>
      <use xlink:href="#Inter-Regular-49" transform="translate(129.589844 0)"/>
      <use xlink:href="#Inter-Regular-50" transform="translate(156.445312 0)"/>
      <use xlink:href="#Inter-Regular-2d" transform="translate(220.3125 0)"/>
      <use xlink:href="#Inter-Regular-54" transform="translate(266.308594 0)"/>
      <use xlink:href="#Inter-Regular-20" transform="translate(330.859375 0)"/>
      <use xlink:href="#Inter-Regular-73" transform="translate(358.984375 0)"/>
      <use xlink:href="#Inter-Regular-63" transform="translate(411.767578 0)"/>
      <use xlink:href="#Inter-Regular-6f" transform="translate(468.896484 0)"/>
      <use xlink:href="#Inter-Regular-72" transform="translate(528.857422 0)"/>
      <use xlink:href="#Inter-Regular-65" transform="translate(566.503906 0)"/>
      <use xlink:href="#Inter-Regular-20" transform="translate(624.804688 0)"/>
      <use xlink:href="#Inter-Regular-2192" transform="translate(652.929688 0)"/>
      <use xlink:href="#Inter-Regular-20" transform="translate(748.339844 0)"/>
      <use xlink:href="#Inter-Regular-70" transform="translate(776.464844 0)"/>
      <use xlink:href="#Inter-Regular-72" transform="translate(837.695312 0)"/>
      <use xlink:href="#Inter-Regular-6f" transform="translate(875.341797 0)"/>
      <use xlink:href="#Inter-Regular-6d" transform="translate(935.302734 0)"/>
      <use xlink:href="#Inter-Regular-70" transform="translate(1022.900391 0)"/>
      <use xlink:href="#Inter-Regular-74" transform="translate(1084.130859 0)"/>
      <use xlink:href="#Inter-Regular-20" transform="translate(1116.845703 0)"/>
      <use xlink:href="#Inter-Regular-66" transform="translate(1144.970703 0)"/>
      <use xlink:href="#Inter-Regular-69" transform="translate(1181.982422 0)"/>
      <use xlink:href="#Inter-Regular-64" transform="translate(1206.201172 0)"/>
      <use xlink:href="#Inter-Regular-65" transform="translate(1267.431641 0)"/>
      <use xlink:href="#Inter-Regular-6c" transform="translate(1325.732422 0)"/>
      <use xlink:href="#Inter-Regular-69" transform="translate(1349.951172 0)"/>
      <use xlink:href="#Inter-Regular-74" transform="translate(1374.169922 0)"/>
      <use xlink:href="#Inter-Regular-79" transform="translate(1406.884766 0)"/>
     </g>
    </g>
   </g>
   <g id="PathCollection_1">
    <defs>
     <path id="m5009a1e614" d="M 0 9.746794 
C 2.58488 9.746794 5.064238 8.719811 6.892024 6.892024 
C 8.719811 5.064238 9.746794 2.58488 9.746794 0 
C 9.746794 -2.58488 8.719811 -5.064238 6.892024 -6.892024 
C 5.064238 -8.719811 2.58488 -9.746794 0 -9.746794 
C -2.58488 -9.746794 -5.064238 -8.719811 -6.892024 -6.892024 
C -8.719811 -5.064238 -9.746794 -2.58488 -9.746794 0 
C -9.746794 2.58488 -8.719811 5.064238 -6.892024 6.892024 
C -5.064238 8.719811 -2.58488 9.746794 0 9.746794 
z
" style="stroke: #f5f1e8; stroke-width: 3"/>
    </defs>
    <g clip-path="url(#p43db84e62f)">
     <use xlink:href="#m5009a1e614" x="159.84" y="176.05478" style="fill: #d8d2c5; stroke: #f5f1e8; stroke-width: 3"/>
    </g>
   </g>
   <g id="text_13">
    <!-- Base SD (zero-shot) -->
    <g style="fill: #1a1a2e" transform="translate(171.84 164.05478) scale(0.16 -0.16)">
     <defs>
      <path id="Inter-Regular-42" d="M 563 0 
L 563 4656 
L 2213 4656 
Q 2700 4656 3017 4489 
Q 3334 4322 3489 4042 
Q 3644 3763 3644 3422 
Q 3644 3122 3537 2926 
Q 3431 2731 3257 2615 
Q 3084 2500 2881 2444 
L 2881 2400 
Q 3100 2388 3317 2250 
Q 3534 2113 3679 1859 
Q 3825 1606 3825 1241 
Q 3825 891 3664 609 
Q 3503 328 3159 164 
Q 2816 0 2266 0 
L 563 0 
z
M 1156 525 
L 2250 525 
Q 2794 525 3023 734 
Q 3253 944 3253 1247 
Q 3253 1481 3134 1678 
Q 3016 1875 2798 1994 
Q 2581 2113 2281 2113 
L 1156 2113 
L 1156 525 
z
M 1156 2613 
L 2181 2613 
Q 2431 2613 2634 2711 
Q 2838 2809 2956 2989 
Q 3075 3169 3075 3409 
Q 3075 3713 2864 3922 
Q 2653 4131 2200 4131 
L 1156 4131 
L 1156 2613 
z
" transform="scale(0.015625)"/>
      <path id="Inter-Regular-61" d="M 1472 -81 
Q 1141 -81 870 44 
Q 600 169 440 409 
Q 281 650 281 994 
Q 281 1294 400 1481 
Q 519 1669 717 1776 
Q 916 1884 1156 1937 
Q 1397 1991 1641 2022 
Q 1953 2063 2150 2084 
Q 2347 2106 2442 2159 
Q 2538 2213 2538 2341 
L 2538 2359 
Q 2538 2578 2456 2729 
Q 2375 2881 2212 2962 
Q 2050 3044 1806 3044 
Q 1556 3044 1378 2966 
Q 1200 2888 1089 2770 
Q 978 2653 922 2531 
L 381 2709 
Q 516 3028 744 3208 
Q 972 3388 1247 3463 
Q 1522 3538 1791 3538 
Q 1966 3538 2189 3495 
Q 2413 3453 2620 3328 
Q 2828 3203 2964 2958 
Q 3100 2713 3100 2303 
L 3100 0 
L 2547 0 
L 2547 475 
L 2509 475 
Q 2450 353 2319 223 
Q 2188 94 1978 6 
Q 1769 -81 1472 -81 
z
M 1569 416 
Q 1881 416 2097 537 
Q 2313 659 2425 854 
Q 2538 1050 2538 1263 
L 2538 1747 
Q 2503 1706 2387 1673 
Q 2272 1641 2123 1616 
Q 1975 1591 1836 1573 
Q 1697 1556 1616 1547 
Q 1413 1522 1236 1461 
Q 1059 1400 953 1283 
Q 847 1166 847 966 
Q 847 784 940 662 
Q 1034 541 1196 478 
Q 1359 416 1569 416 
z
" transform="scale(0.015625)"/>
      <path id="Inter-Regular-53" d="M 2053 -81 
Q 1550 -81 1179 81 
Q 809 244 600 536 
Q 391 828 363 1219 
L 972 1219 
Q 997 956 1150 786 
Q 1303 616 1542 533 
Q 1781 450 2053 450 
Q 2369 450 2620 553 
Q 2872 656 3019 843 
Q 3166 1031 3166 1278 
Q 3166 1503 3039 1643 
Q 2913 1784 2703 1875 
Q 2494 1966 2244 2034 
L 1681 2194 
Q 1119 2353 806 2650 
Q 494 2947 494 3409 
Q 494 3803 706 4098 
Q 919 4394 1281 4556 
Q 1644 4719 2094 4719 
Q 2553 4719 2906 4556 
Q 3259 4394 3464 4114 
Q 3669 3834 3681 3481 
L 3100 3481 
Q 3059 3822 2775 4008 
Q 2491 4194 2075 4194 
Q 1775 4194 1548 4095 
Q 1322 3997 1197 3826 
Q 1072 3656 1072 3438 
Q 1072 3194 1223 3045 
Q 1375 2897 1583 2814 
Q 1791 2731 1959 2684 
L 2425 2556 
Q 2613 2506 2839 2418 
Q 3066 2331 3272 2186 
Q 3478 2041 3611 1817 
Q 3744 1594 3744 1269 
Q 3744 888 3545 581 
Q 3347 275 2969 97 
Q 2591 -81 2053 -81 
z
" transform="scale(0.015625)"/>
      <path id="Inter-Regular-28" d="M 681 1897 
Q 681 2406 786 2964 
Q 891 3522 1072 4039 
Q 1253 4556 1488 4941 
L 2034 4941 
Q 1794 4450 1617 3919 
Q 1441 3388 1347 2870 
Q 1253 2353 1253 1897 
Q 1253 1481 1336 1056 
Q 1419 631 1592 157 
Q 1766 -316 2034 -872 
L 1488 -872 
Q 1091 -194 886 509 
Q 681 1213 681 1897 
z
" transform="scale(0.015625)"/>
      <path id="Inter-Regular-7a" d="M 394 0 
L 394 419 
L 2353 2938 
L 2353 2972 
L 456 2972 
L 456 3494 
L 3078 3494 
L 3078 3047 
L 1175 556 
L 1175 522 
L 3141 522 
L 3141 0 
L 394 0 
z
" transform="scale(0.015625)"/>
      <path id="Inter-Regular-68" d="M 1056 2094 
L 1056 0 
L 494 0 
L 494 4656 
L 1056 4656 
L 1056 2647 
L 959 2647 
Q 1119 3131 1414 3334 
Q 1709 3538 2106 3538 
Q 2459 3538 2726 3392 
Q 2994 3247 3142 2955 
Q 3291 2663 3291 2219 
L 3291 0 
L 2725 0 
L 2725 2172 
Q 2725 2575 2514 2803 
Q 2303 3031 1938 3031 
Q 1688 3031 1488 2922 
Q 1288 2813 1172 2603 
Q 1056 2394 1056 2094 
z
" transform="scale(0.015625)"/>
      <path id="Inter-Regular-29" d="M 300 -872 
Q 578 -300 750 176 
Q 922 653 1001 1075 
Q 1081 1497 1081 1897 
Q 1081 2353 987 2870 
Q 894 3388 719 3919 
Q 544 4450 300 4941 
L 847 4941 
Q 1081 4556 1264 4039 
Q 1447 3522 1550 2962 
Q 1653 2403 1653 1897 
Q 1653 1200 1445 497 
Q 1238 -206 847 -872 
L 300 -872 
z
" transform="scale(0.015625)"/>
     </defs>
     <use xlink:href="#Inter-Regular-42"/>
     <use xlink:href="#Inter-Regular-61" transform="translate(65.429688 0)"/>
     <use xlink:href="#Inter-Regular-73" transform="translate(121.582031 0)"/>
     <use xlink:href="#Inter-Regular-65" transform="translate(174.365234 0)"/>
     <use xlink:href="#Inter-Regular-20" transform="translate(232.666016 0)"/>
     <use xlink:href="#Inter-Regular-53" transform="translate(260.791016 0)"/>
     <use xlink:href="#Inter-Regular-44" transform="translate(324.951172 0)"/>
     <use xlink:href="#Inter-Regular-20" transform="translate(397.119141 0)"/>
     <use xlink:href="#Inter-Regular-28" transform="translate(425.244141 0)"/>
     <use xlink:href="#Inter-Regular-7a" transform="translate(461.71875 0)"/>
     <use xlink:href="#Inter-Regular-65" transform="translate(516.943359 0)"/>
     <use xlink:href="#Inter-Regular-72" transform="translate(575.244141 0)"/>
     <use xlink:href="#Inter-Regular-6f" transform="translate(612.890625 0)"/>
     <use xlink:href="#Inter-Regular-2d" transform="translate(672.851562 0)"/>
     <use xlink:href="#Inter-Regular-73" transform="translate(718.847656 0)"/>
     <use xlink:href="#Inter-Regular-68" transform="translate(771.630859 0)"/>
     <use xlink:href="#Inter-Regular-6f" transform="translate(830.761719 0)"/>
     <use xlink:href="#Inter-Regular-74" transform="translate(890.722656 0)"/>
     <use xlink:href="#Inter-Regular-29" transform="translate(923.4375 0)"/>
    </g>
   </g>
   <g id="PathCollection_2">
    <defs>
     <path id="m2e31ff3772" d="M 0 9.746794 
C 2.58488 9.746794 5.064238 8.719811 6.892024 6.892024 
C 8.719811 5.064238 9.746794 2.58488 9.746794 0 
C 9.746794 -2.58488 8.719811 -5.064238 6.892024 -6.892024 
C 5.064238 -8.719811 2.58488 -9.746794 0 -9.746794 
C -2.58488 -9.746794 -5.064238 -8.719811 -6.892024 -6.892024 
C -8.719811 -5.064238 -9.746794 -2.58488 -9.746794 0 
C -9.746794 2.58488 -8.719811 5.064238 -6.892024 6.892024 
C -5.064238 8.719811 -2.58488 9.746794 0 9.746794 
z
" style="stroke: #f5f1e8; stroke-width: 3"/>
    </defs>
    <g clip-path="url(#p43db84e62f)">
     <use xlink:href="#m2e31ff3772" x="663.84" y="466.90522" style="fill: #1a1a1a; stroke: #f5f1e8; stroke-width: 3"/>
    </g>
   </g>
   <g id="text_14">
    <!-- Paper (DreamBooth) -->
    <g style="fill: #1a1a2e" transform="translate(675.84 454.90522) scale(0.16 -0.16)">
     <use xlink:href="#Inter-Regular-50"/>
     <use xlink:href="#Inter-Regular-61" transform="translate(63.867188 0)"/>
     <use xlink:href="#Inter-Regular-70" transform="translate(120.019531 0)"/>
     <use xlink:href="#Inter-Regular-65" transform="translate(181.25 0)"/>
     <use xlink:href="#Inter-Regular-72" transform="translate(239.550781 0)"/>
     <use xlink:href="#Inter-Regular-20" transform="translate(277.197266 0)"/>
     <use xlink:href="#Inter-Regular-28" transform="translate(305.322266 0)"/>
     <use xlink:href="#Inter-Regular-44" transform="translate(341.796875 0)"/>
     <use xlink:href="#Inter-Regular-72" transform="translate(413.964844 0)"/>
     <use xlink:href="#Inter-Regular-65" transform="translate(451.611328 0)"/>
     <use xlink:href="#Inter-Regular-61" transform="translate(509.912109 0)"/>
     <use xlink:href="#Inter-Regular-6d" transform="translate(566.064453 0)"/>
     <use xlink:href="#Inter-Regular-42" transform="translate(653.662109 0)"/>
     <use xlink:href="#Inter-Regular-6f" transform="translate(719.091797 0)"/>
     <use xlink:href="#Inter-Regular-6f" transform="translate(779.052734 0)"/>
     <use xlink:href="#Inter-Regular-74" transform="translate(839.013672 0)"/>
     <use xlink:href="#Inter-Regular-68" transform="translate(871.728516 0)"/>
     <use xlink:href="#Inter-Regular-29" transform="translate(930.859375 0)"/>
    </g>
   </g>
   <g id="PathCollection_3">
    <defs>
     <path id="mcdcad9fdb1" d="M 0 9.746794 
C 2.58488 9.746794 5.064238 8.719811 6.892024 6.892024 
C 8.719811 5.064238 9.746794 2.58488 9.746794 0 
C 9.746794 -2.58488 8.719811 -5.064238 6.892024 -6.892024 
C 5.064238 -8.719811 2.58488 -9.746794 0 -9.746794 
C -2.58488 -9.746794 -5.064238 -8.719811 -6.892024 -6.892024 
C -8.719811 -5.064238 -9.746794 -2.58488 -9.746794 0 
C -9.746794 2.58488 -8.719811 5.064238 -6.892024 6.892024 
C -5.064238 8.719811 -2.58488 9.746794 0 9.746794 
z
" style="stroke: #f5f1e8; stroke-width: 3"/>
    </defs>
    <g clip-path="url(#p43db84e62f)">
     <use xlink:href="#mcdcad9fdb1" x="580.271435" y="291.245004" style="fill: #c2410c; stroke: #f5f1e8; stroke-width: 3"/>
    </g>
   </g>
   <g id="text_15">
    <!-- Ours · Full FT -->
    <g style="fill: #1a1a2e" transform="translate(592.271435 279.245004) scale(0.16 -0.16)">
     <defs>
      <path id="Inter-Regular-b7" d="M 922 1815 
Q 747 1815 623 1938 
Q 500 2062 500 2237 
Q 500 2412 623 2535 
Q 747 2659 922 2659 
Q 1097 2659 1220 2535 
Q 1344 2412 1344 2237 
Q 1344 2062 1220 1938 
Q 1097 1815 922 1815 
z
" transform="scale(0.015625)"/>
      <path id="Inter-Regular-46" d="M 563 0 
L 563 4656 
L 3378 4656 
L 3378 4131 
L 1156 4131 
L 1156 2538 
L 3166 2538 
L 3166 2013 
L 1156 2013 
L 1156 0 
L 563 0 
z
" transform="scale(0.015625)"/>
     </defs>
     <use xlink:href="#Inter-Regular-4f"/>
     <use xlink:href="#Inter-Regular-75" transform="translate(76.464844 0)"/>
     <use xlink:href="#Inter-Regular-72" transform="translate(135.595703 0)"/>
     <use xlink:href="#Inter-Regular-73" transform="translate(173.242188 0)"/>
     <use xlink:href="#Inter-Regular-20" transform="translate(226.025391 0)"/>
     <use xlink:href="#Inter-Regular-b7" transform="translate(254.150391 0)"/>
     <use xlink:href="#Inter-Regular-20" transform="translate(282.958984 0)"/>
     <use xlink:href="#Inter-Regular-46" transform="translate(311.083984 0)"/>
     <use xlink:href="#Inter-Regular-75" transform="translate(370.117188 0)"/>
     <use xlink:href="#Inter-Regular-6c" transform="translate(429.248047 0)"/>
     <use xlink:href="#Inter-Regular-6c" transform="translate(453.466797 0)"/>
     <use xlink:href="#Inter-Regular-20" transform="translate(477.685547 0)"/>
     <use xlink:href="#Inter-Regular-46" transform="translate(505.810547 0)"/>
     <use xlink:href="#Inter-Regular-54" transform="translate(564.84375 0)"/>
    </g>
   </g>
   <g id="PathCollection_4">
    <defs>
     <path id="mc168cc0ea2" d="M 0 9.746794 
C 2.58488 9.746794 5.064238 8.719811 6.892024 6.892024 
C 8.719811 5.064238 9.746794 2.58488 9.746794 0 
C 9.746794 -2.58488 8.719811 -5.064238 6.892024 -6.892024 
C 5.064238 -8.719811 2.58488 -9.746794 0 -9.746794 
C -2.58488 -9.746794 -5.064238 -8.719811 -6.892024 -6.892024 
C -8.719811 -5.064238 -9.746794 -2.58488 -9.746794 0 
C -9.746794 2.58488 -8.719811 5.064238 -6.892024 6.892024 
C -5.064238 8.719811 -2.58488 9.746794 0 9.746794 
z
" style="stroke: #f5f1e8; stroke-width: 3"/>
    </defs>
    <g clip-path="url(#p43db84e62f)">
     <use xlink:href="#mc168cc0ea2" x="463.808936" y="215.306888" style="fill: #e89376; stroke: #f5f1e8; stroke-width: 3"/>
    </g>
   </g>
   <g id="text_16">
    <!-- Ours · LoRA -->
    <g style="fill: #1a1a2e" transform="translate(475.808936 203.306888) scale(0.16 -0.16)">
     <defs>
      <path id="Inter-Regular-52" d="M 563 0 
L 563 4656 
L 2156 4656 
Q 2700 4656 3051 4470 
Q 3403 4284 3573 3959 
Q 3744 3634 3744 3219 
Q 3744 2803 3573 2484 
Q 3403 2166 3053 1986 
Q 2703 1806 2159 1806 
L 894 1806 
L 894 2334 
L 2131 2334 
Q 2500 2334 2723 2442 
Q 2947 2550 3050 2748 
Q 3153 2947 3153 3219 
Q 3153 3497 3050 3701 
Q 2947 3906 2722 4020 
Q 2497 4134 2125 4134 
L 1156 4134 
L 1156 0 
L 563 0 
z
M 3238 0 
L 2113 2097 
L 2781 2097 
L 3925 0 
L 3238 0 
z
" transform="scale(0.015625)"/>
      <path id="Inter-Regular-41" d="M 163 0 
L 1853 4656 
L 2541 4656 
L 4253 0 
L 3628 0 
L 2641 2763 
Q 2550 3019 2429 3401 
Q 2309 3784 2138 4378 
L 2250 4378 
Q 2081 3778 1957 3389 
Q 1834 3000 1753 2763 
L 794 0 
L 163 0 
z
M 1013 1300 
L 1013 1819 
L 3403 1819 
L 3403 1300 
L 1013 1300 
z
" transform="scale(0.015625)"/>
     </defs>
     <use xlink:href="#Inter-Regular-4f"/>
     <use xlink:href="#Inter-Regular-75" transform="translate(76.464844 0)"/>
     <use xlink:href="#Inter-Regular-72" transform="translate(135.595703 0)"/>
     <use xlink:href="#Inter-Regular-73" transform="translate(173.242188 0)"/>
     <use xlink:href="#Inter-Regular-20" transform="translate(226.025391 0)"/>
     <use xlink:href="#Inter-Regular-b7" transform="translate(254.150391 0)"/>
     <use xlink:href="#Inter-Regular-20" transform="translate(282.958984 0)"/>
     <use xlink:href="#Inter-Regular-4c" transform="translate(311.083984 0)"/>
     <use xlink:href="#Inter-Regular-6f" transform="translate(367.626953 0)"/>
     <use xlink:href="#Inter-Regular-52" transform="translate(427.587891 0)"/>
     <use xlink:href="#Inter-Regular-41" transform="translate(491.943359 0)"/>
    </g>
   </g>
   <g id="text_17">
    <!-- ideal -->
    <g style="fill: #8a8a8a" transform="translate(691.313437 150.215) scale(0.18 -0.18)">
     <defs>
      <path id="Inter-Italic-69" d="M 206 0 
L 784 3494 
L 1347 3494 
L 769 0 
L 206 0 
z
M 1164 4066 
Q 1005 4066 908 4175 
Q 811 4284 836 4438 
Q 861 4594 995 4701 
Q 1130 4809 1289 4809 
Q 1452 4809 1549 4701 
Q 1646 4594 1621 4438 
Q 1596 4284 1461 4175 
Q 1327 4066 1164 4066 
z
" transform="scale(0.015625)"/>
      <path id="Inter-Italic-64" d="M 1538 -75 
Q 966 -75 630 301 
Q 294 678 294 1328 
Q 294 1741 414 2134 
Q 534 2528 764 2845 
Q 994 3163 1323 3350 
Q 1653 3538 2072 3538 
Q 2419 3538 2608 3423 
Q 2797 3309 2886 3162 
Q 2975 3016 3019 2919 
L 3056 2919 
L 3344 4656 
L 3909 4656 
L 3138 0 
L 2591 0 
L 2684 541 
L 2625 541 
Q 2550 431 2420 286 
Q 2291 141 2077 33 
Q 1863 -75 1538 -75 
z
M 1638 428 
Q 1953 428 2190 581 
Q 2428 734 2587 987 
Q 2747 1241 2828 1544 
Q 2909 1847 2909 2144 
Q 2909 2553 2718 2793 
Q 2528 3034 2138 3034 
Q 1825 3034 1587 2886 
Q 1350 2738 1189 2492 
Q 1028 2247 945 1951 
Q 863 1656 863 1359 
Q 863 953 1052 690 
Q 1241 428 1638 428 
z
" transform="scale(0.015625)"/>
      <path id="Inter-Italic-65" d="M 1672 -75 
Q 1241 -75 933 94 
Q 625 263 459 578 
Q 294 894 294 1334 
Q 294 1794 441 2198 
Q 588 2603 850 2911 
Q 1113 3219 1458 3394 
Q 1803 3569 2200 3569 
Q 2538 3569 2788 3451 
Q 3038 3334 3175 3120 
Q 3313 2906 3313 2616 
Q 3313 2322 3161 2114 
Q 3009 1906 2690 1775 
Q 2372 1644 1873 1583 
Q 1375 1522 684 1522 
L 759 1947 
Q 1331 1947 1715 1980 
Q 2100 2013 2326 2091 
Q 2553 2169 2651 2300 
Q 2750 2431 2750 2628 
Q 2750 2828 2583 2948 
Q 2416 3069 2144 3069 
Q 1791 3069 1542 2898 
Q 1294 2728 1137 2461 
Q 981 2194 907 1895 
Q 834 1597 834 1338 
Q 834 1081 918 873 
Q 1003 666 1195 544 
Q 1388 422 1706 422 
Q 2041 422 2302 567 
Q 2563 713 2697 963 
L 3219 816 
Q 3025 403 2608 164 
Q 2191 -75 1672 -75 
z
" transform="scale(0.015625)"/>
      <path id="Inter-Italic-61" d="M 1503 -75 
Q 1069 -75 772 148 
Q 475 372 354 780 
Q 234 1188 325 1741 
Q 419 2297 675 2698 
Q 931 3100 1303 3319 
Q 1675 3538 2109 3538 
Q 2447 3538 2628 3427 
Q 2809 3316 2892 3173 
Q 2975 3031 3019 2934 
L 3066 2934 
L 3156 3494 
L 3722 3494 
L 3144 0 
L 2597 0 
L 2684 541 
L 2619 541 
Q 2541 438 2406 292 
Q 2272 147 2053 36 
Q 1834 -75 1503 -75 
z
M 1678 428 
Q 1997 428 2242 597 
Q 2488 766 2650 1062 
Q 2813 1359 2875 1747 
Q 2941 2134 2877 2423 
Q 2813 2713 2620 2873 
Q 2428 3034 2109 3034 
Q 1775 3034 1523 2861 
Q 1272 2688 1114 2397 
Q 956 2106 897 1747 
Q 838 1381 900 1081 
Q 963 781 1156 604 
Q 1350 428 1678 428 
z
" transform="scale(0.015625)"/>
      <path id="Inter-Italic-6c" d="M 1538 4656 
L 766 0 
L 203 0 
L 975 4656 
L 1538 4656 
z
" transform="scale(0.015625)"/>
     </defs>
     <use xlink:href="#Inter-Italic-69"/>
     <use xlink:href="#Inter-Italic-64" transform="translate(24.267578 0)"/>
     <use xlink:href="#Inter-Italic-65" transform="translate(85.546875 0)"/>
     <use xlink:href="#Inter-Italic-61" transform="translate(143.115234 0)"/>
     <use xlink:href="#Inter-Italic-6c" transform="translate(204.492188 0)"/>
    </g>
    <!-- (both high) -->
    <g style="fill: #8a8a8a" transform="translate(639.223125 170.564) scale(0.18 -0.18)">
     <defs>
      <path id="Inter-Italic-28" d="M 706 1900 
Q 791 2406 986 2964 
Q 1181 3522 1450 4039 
Q 1719 4556 2016 4941 
L 2563 4941 
Q 2238 4444 1973 3914 
Q 1709 3384 1531 2868 
Q 1353 2353 1278 1903 
Q 1209 1491 1221 1064 
Q 1234 638 1328 162 
Q 1422 -313 1600 -872 
L 1053 -872 
Q 763 -181 678 522 
Q 594 1225 706 1900 
z
" transform="scale(0.015625)"/>
      <path id="Inter-Italic-62" d="M 1850 -75 
Q 1513 -75 1322 36 
Q 1131 147 1037 292 
Q 944 438 897 541 
L 841 541 
L 747 0 
L 203 0 
L 975 4656 
L 1538 4656 
L 1250 2934 
L 1297 2934 
Q 1378 3034 1503 3176 
Q 1628 3319 1836 3428 
Q 2044 3538 2372 3538 
Q 2756 3538 3037 3369 
Q 3319 3200 3472 2887 
Q 3625 2575 3625 2141 
Q 3625 1734 3504 1339 
Q 3384 944 3156 625 
Q 2928 306 2598 115 
Q 2269 -75 1850 -75 
z
M 1775 428 
Q 2088 428 2327 581 
Q 2566 734 2730 986 
Q 2894 1238 2976 1536 
Q 3059 1834 3059 2125 
Q 3059 2525 2870 2779 
Q 2681 3034 2278 3034 
Q 1963 3034 1725 2886 
Q 1488 2738 1330 2491 
Q 1172 2244 1092 1944 
Q 1013 1644 1013 1341 
Q 1013 925 1203 676 
Q 1394 428 1775 428 
z
" transform="scale(0.015625)"/>
      <path id="Inter-Italic-6f" d="M 1650 -75 
Q 1228 -75 925 101 
Q 622 278 458 600 
Q 294 922 294 1353 
Q 294 1769 423 2159 
Q 553 2550 798 2861 
Q 1044 3172 1392 3355 
Q 1741 3538 2178 3538 
Q 2600 3538 2906 3363 
Q 3213 3188 3377 2866 
Q 3541 2544 3541 2106 
Q 3541 1684 3409 1293 
Q 3278 903 3029 593 
Q 2781 284 2432 104 
Q 2084 -75 1650 -75 
z
M 1663 428 
Q 1984 428 2229 578 
Q 2475 728 2640 973 
Q 2806 1219 2890 1512 
Q 2975 1806 2975 2094 
Q 2975 2359 2890 2571 
Q 2806 2784 2628 2909 
Q 2450 3034 2163 3034 
Q 1844 3034 1600 2884 
Q 1356 2734 1190 2487 
Q 1025 2241 940 1945 
Q 856 1650 856 1359 
Q 856 966 1047 697 
Q 1238 428 1663 428 
z
" transform="scale(0.015625)"/>
      <path id="Inter-Italic-74" d="M 2159 3494 
L 2081 3013 
L 275 3013 
L 353 3494 
L 2159 3494 
z
M 1019 4325 
L 1581 4325 
L 1016 906 
Q 975 666 1056 561 
Q 1138 456 1353 456 
Q 1406 456 1490 468 
Q 1575 481 1647 494 
L 1681 19 
Q 1597 -9 1484 -26 
Q 1372 -44 1256 -44 
Q 797 -44 586 197 
Q 375 438 444 863 
L 1019 4325 
z
" transform="scale(0.015625)"/>
      <path id="Inter-Italic-68" d="M 1113 2094 
L 766 0 
L 203 0 
L 975 4656 
L 1538 4656 
L 1203 2647 
L 1106 2647 
Q 1269 2975 1464 3170 
Q 1659 3366 1887 3452 
Q 2116 3538 2375 3538 
Q 2728 3538 2978 3392 
Q 3228 3247 3336 2955 
Q 3444 2663 3369 2219 
L 3000 0 
L 2434 0 
L 2797 2172 
Q 2866 2581 2687 2806 
Q 2509 3031 2147 3031 
Q 1900 3031 1683 2922 
Q 1466 2813 1314 2605 
Q 1163 2397 1113 2094 
z
" transform="scale(0.015625)"/>
      <path id="Inter-Italic-20" transform="scale(0.015625)"/>
      <path id="Inter-Italic-67" d="M 1425 -1381 
Q 1022 -1381 750 -1276 
Q 478 -1172 315 -1005 
Q 153 -838 78 -653 
L 563 -391 
Q 616 -484 703 -601 
Q 791 -719 962 -805 
Q 1134 -891 1438 -891 
Q 1869 -891 2184 -680 
Q 2500 -469 2572 -41 
L 2688 641 
L 2638 628 
Q 2559 525 2431 390 
Q 2303 256 2093 156 
Q 1884 56 1556 56 
Q 1184 56 901 211 
Q 619 366 459 662 
Q 300 959 300 1384 
Q 300 1784 422 2167 
Q 544 2550 775 2859 
Q 1006 3169 1334 3353 
Q 1663 3538 2075 3538 
Q 2334 3538 2503 3469 
Q 2672 3400 2773 3297 
Q 2875 3194 2929 3091 
Q 2984 2988 3016 2919 
L 3081 2934 
L 3175 3494 
L 3722 3494 
L 3122 -109 
Q 3047 -559 2803 -839 
Q 2559 -1119 2201 -1250 
Q 1844 -1381 1425 -1381 
z
M 1659 556 
Q 1981 556 2217 697 
Q 2453 838 2608 1070 
Q 2763 1303 2838 1586 
Q 2913 1869 2913 2156 
Q 2913 2556 2722 2795 
Q 2531 3034 2141 3034 
Q 1838 3034 1600 2893 
Q 1363 2753 1198 2517 
Q 1034 2281 950 1993 
Q 866 1706 866 1416 
Q 866 1025 1062 790 
Q 1259 556 1659 556 
z
" transform="scale(0.015625)"/>
      <path id="Inter-Italic-29" d="M -134 -875 
Q 225 -325 476 147 
Q 728 619 883 1050 
Q 1038 1481 1106 1897 
Q 1181 2353 1173 2867 
Q 1166 3381 1078 3911 
Q 991 4441 828 4938 
L 1378 4938 
Q 1547 4553 1642 4036 
Q 1738 3519 1748 2961 
Q 1759 2403 1675 1894 
Q 1563 1216 1245 511 
Q 928 -194 416 -875 
L -134 -875 
z
" transform="scale(0.015625)"/>
     </defs>
     <use xlink:href="#Inter-Italic-28"/>
     <use xlink:href="#Inter-Italic-62" transform="translate(36.474609 0)"/>
     <use xlink:href="#Inter-Italic-6f" transform="translate(97.753906 0)"/>
     <use xlink:href="#Inter-Italic-74" transform="translate(157.763672 0)"/>
     <use xlink:href="#Inter-Italic-68" transform="translate(190.576172 0)"/>
     <use xlink:href="#Inter-Italic-20" transform="translate(249.707031 0)"/>
     <use xlink:href="#Inter-Italic-68" transform="translate(277.832031 0)"/>
     <use xlink:href="#Inter-Italic-69" transform="translate(336.962891 0)"/>
     <use xlink:href="#Inter-Italic-67" transform="translate(361.230469 0)"/>
     <use xlink:href="#Inter-Italic-68" transform="translate(422.558594 0)"/>
     <use xlink:href="#Inter-Italic-29" transform="translate(481.689453 0)"/>
    </g>
   </g>
  </g>
  <g id="text_18">
   <!-- The subject–prompt fidelity trade-off -->
   <g style="fill: #1a1a2e" transform="translate(85.283437 50.04) scale(0.36 -0.36)">
    <defs>
     <path id="SourceSerif4-Bold-54" d="M 128 3014 
L 154 4205 
L 3910 4205 
L 3930 3014 
L 3398 3014 
L 3283 3846 
L 2579 3846 
Q 2573 3450 2569 3043 
Q 2566 2637 2566 2221 
L 2566 1990 
Q 2566 1594 2569 1197 
Q 2573 800 2579 403 
L 3123 346 
L 3123 0 
L 934 0 
L 934 346 
L 1478 403 
Q 1491 794 1491 1190 
Q 1491 1587 1491 1984 
L 1491 2221 
Q 1491 2624 1491 3030 
Q 1491 3437 1478 3846 
L 781 3846 
L 659 3014 
L 128 3014 
z
" transform="scale(0.015625)"/>
     <path id="SourceSerif4-Bold-68" d="M 179 0 
L 179 301 
L 531 378 
Q 538 614 538 880 
Q 538 1146 538 1344 
L 538 4026 
L 134 4090 
L 134 4365 
L 1459 4653 
L 1562 4582 
L 1536 3686 
L 1536 2662 
Q 1792 2957 2032 3075 
Q 2272 3194 2554 3194 
Q 2976 3194 3232 2918 
Q 3488 2643 3488 2086 
L 3488 1344 
Q 3488 1133 3488 867 
Q 3488 602 3494 365 
L 3814 301 
L 3814 0 
L 2131 0 
L 2131 301 
L 2464 371 
Q 2470 608 2470 873 
Q 2470 1139 2470 1344 
L 2470 2016 
Q 2470 2330 2396 2451 
Q 2323 2573 2125 2573 
Q 1997 2573 1849 2496 
Q 1702 2419 1555 2278 
L 1555 1344 
Q 1555 1146 1555 874 
Q 1555 602 1562 365 
L 1862 301 
L 1862 0 
L 179 0 
z
" transform="scale(0.015625)"/>
     <path id="SourceSerif4-Bold-65" d="M 1779 2861 
Q 1581 2861 1430 2640 
Q 1280 2419 1261 1830 
L 1805 1830 
Q 2048 1830 2125 1923 
Q 2202 2016 2202 2234 
Q 2202 2566 2080 2713 
Q 1958 2861 1779 2861 
z
M 1824 -96 
Q 1344 -96 976 89 
Q 608 275 397 633 
Q 186 992 186 1510 
Q 186 2042 397 2419 
Q 608 2797 969 2995 
Q 1331 3194 1779 3194 
Q 2208 3194 2515 3018 
Q 2822 2842 2988 2538 
Q 3155 2234 3155 1843 
Q 3155 1651 3117 1498 
L 1261 1498 
Q 1299 992 1564 752 
Q 1830 512 2182 512 
Q 2650 512 2944 851 
L 3162 672 
Q 2957 294 2643 99 
Q 2330 -96 1824 -96 
z
" transform="scale(0.015625)"/>
     <path id="SourceSerif4-Bold-20" transform="scale(0.015625)"/>
     <path id="SourceSerif4-Bold-73" d="M 1306 -96 
Q 698 -96 192 198 
L 211 979 
L 723 979 
L 832 346 
Q 947 301 1065 278 
Q 1184 256 1312 256 
Q 1587 256 1734 349 
Q 1882 442 1882 634 
Q 1882 781 1773 889 
Q 1664 998 1344 1088 
L 998 1190 
Q 627 1299 425 1542 
Q 224 1786 224 2144 
Q 224 2586 569 2890 
Q 915 3194 1562 3194 
Q 1843 3194 2083 3126 
Q 2323 3059 2573 2931 
L 2528 2234 
L 2016 2234 
L 1888 2784 
Q 1754 2835 1536 2835 
Q 1318 2835 1187 2742 
Q 1056 2650 1056 2477 
Q 1056 2349 1158 2249 
Q 1261 2150 1594 2048 
L 1901 1958 
Q 2355 1824 2553 1574 
Q 2752 1325 2752 966 
Q 2752 461 2368 182 
Q 1984 -96 1306 -96 
z
" transform="scale(0.015625)"/>
     <path id="SourceSerif4-Bold-75" d="M 2445 -70 
L 2406 467 
Q 2202 198 1942 51 
Q 1683 -96 1376 -96 
Q 966 -96 713 163 
Q 461 422 467 1056 
L 493 2618 
L 122 2701 
L 122 2970 
L 1427 3155 
L 1530 3085 
L 1498 2195 
L 1498 1050 
Q 1498 755 1590 636 
Q 1683 518 1843 518 
Q 1978 518 2122 604 
Q 2266 691 2394 813 
L 2419 2624 
L 2067 2701 
L 2067 2950 
L 3341 3155 
L 3443 3085 
L 3424 2195 
L 3424 365 
L 3757 294 
L 3757 -6 
L 2445 -70 
z
" transform="scale(0.015625)"/>
     <path id="SourceSerif4-Bold-62" d="M 186 -6 
L 186 294 
L 525 365 
Q 531 595 534 867 
Q 538 1139 538 1338 
L 538 4038 
L 134 4090 
L 134 4365 
L 1459 4653 
L 1562 4582 
L 1536 3686 
L 1536 2784 
Q 1939 3194 2464 3194 
Q 2816 3194 3097 3011 
Q 3379 2829 3548 2467 
Q 3718 2106 3718 1574 
Q 3718 1056 3526 681 
Q 3334 307 3024 105 
Q 2714 -96 2349 -96 
Q 1824 -96 1504 282 
L 1395 -90 
L 186 -6 
z
M 1997 2637 
Q 1875 2637 1766 2585 
Q 1658 2534 1555 2451 
L 1555 621 
Q 1754 442 1990 442 
Q 2272 442 2454 717 
Q 2637 992 2637 1555 
Q 2637 2125 2461 2381 
Q 2285 2637 1997 2637 
z
" transform="scale(0.015625)"/>
     <path id="SourceSerif4-Bold-6a" d="M 90 -1517 
Q -224 -1517 -403 -1392 
Q -582 -1267 -634 -1050 
Q -544 -608 -134 -608 
Q 32 -608 150 -701 
Q 269 -794 365 -979 
L 448 -1139 
Q 467 -1101 483 -1059 
Q 499 -1018 506 -954 
Q 557 -723 541 -294 
Q 525 134 525 666 
L 525 1651 
Q 525 1914 521 2090 
Q 518 2266 506 2458 
L 115 2515 
L 115 2765 
L 1446 3194 
L 1555 3123 
L 1536 2195 
L 1536 346 
Q 1536 -38 1497 -300 
Q 1459 -563 1369 -745 
Q 1280 -928 1120 -1088 
Q 870 -1338 601 -1427 
Q 333 -1517 90 -1517 
z
M 1011 3648 
Q 787 3648 627 3792 
Q 467 3936 467 4154 
Q 467 4378 627 4522 
Q 787 4666 1011 4666 
Q 1235 4666 1395 4522 
Q 1555 4378 1555 4154 
Q 1555 3936 1395 3792 
Q 1235 3648 1011 3648 
z
" transform="scale(0.015625)"/>
     <path id="SourceSerif4-Bold-63" d="M 1818 -96 
Q 1325 -96 957 99 
Q 589 294 387 656 
Q 186 1018 186 1523 
Q 186 2061 400 2432 
Q 614 2803 995 2998 
Q 1376 3194 1862 3194 
Q 2208 3194 2480 3066 
Q 2752 2938 2918 2726 
Q 3085 2515 3110 2259 
Q 3008 1926 2675 1926 
Q 2490 1926 2349 2060 
Q 2208 2195 2182 2534 
L 2144 2854 
Q 2118 2861 2086 2861 
Q 2054 2861 2022 2861 
Q 1843 2861 1664 2739 
Q 1485 2618 1369 2358 
Q 1254 2099 1254 1683 
Q 1254 1094 1516 803 
Q 1779 512 2157 512 
Q 2374 512 2556 592 
Q 2739 672 2899 851 
L 3117 672 
Q 2931 301 2611 102 
Q 2291 -96 1818 -96 
z
" transform="scale(0.015625)"/>
     <path id="SourceSerif4-Bold-74" d="M 1395 -96 
Q 966 -96 723 112 
Q 480 320 480 794 
Q 480 960 483 1104 
Q 486 1248 486 1434 
L 486 2656 
L 70 2656 
L 70 3034 
L 538 3091 
L 864 3994 
L 1517 3994 
L 1504 3091 
L 2176 3091 
L 2176 2656 
L 1504 2656 
L 1504 864 
Q 1504 640 1597 534 
Q 1690 429 1830 429 
Q 1997 429 2176 570 
L 2336 416 
Q 2208 173 1977 38 
Q 1747 -96 1395 -96 
z
" transform="scale(0.015625)"/>
     <path id="SourceSerif4-Bold-2013" d="M 256 1350 
L 256 1926 
L 3194 1926 
L 3194 1350 
L 256 1350 
z
" transform="scale(0.015625)"/>
     <path id="SourceSerif4-Bold-70" d="M 186 -1453 
L 186 -1152 
L 544 -1075 
Q 550 -774 553 -512 
Q 557 -250 557 -19 
L 557 1715 
Q 557 1978 553 2122 
Q 550 2266 538 2458 
L 141 2515 
L 141 2765 
L 1395 3194 
L 1504 3130 
L 1530 2771 
Q 1946 3194 2477 3194 
Q 2829 3194 3110 3008 
Q 3392 2822 3561 2457 
Q 3731 2093 3731 1562 
Q 3731 1050 3539 675 
Q 3347 301 3036 102 
Q 2726 -96 2362 -96 
Q 1869 -96 1555 237 
L 1555 -13 
Q 1555 -243 1558 -502 
Q 1562 -762 1568 -1056 
L 1978 -1152 
L 1978 -1453 
L 186 -1453 
z
M 2016 2637 
Q 1894 2637 1785 2585 
Q 1677 2534 1574 2451 
L 1574 602 
Q 1766 442 1990 442 
Q 2278 442 2460 710 
Q 2643 979 2643 1549 
Q 2643 2118 2470 2377 
Q 2298 2637 2016 2637 
z
" transform="scale(0.015625)"/>
     <path id="SourceSerif4-Bold-72" d="M 173 0 
L 173 301 
L 525 371 
Q 531 608 531 877 
Q 531 1146 531 1344 
L 531 1722 
Q 531 1901 528 2016 
Q 525 2131 521 2230 
Q 518 2330 512 2458 
L 122 2515 
L 122 2765 
L 1382 3194 
L 1498 3123 
L 1555 2368 
Q 1690 2778 1933 2986 
Q 2176 3194 2413 3194 
Q 2624 3194 2777 3075 
Q 2931 2957 2970 2720 
Q 2963 2470 2835 2332 
Q 2707 2195 2515 2195 
Q 2246 2195 2022 2496 
L 1984 2547 
Q 1843 2413 1724 2208 
Q 1606 2003 1555 1779 
L 1555 1344 
Q 1555 1146 1555 890 
Q 1555 634 1562 410 
L 2067 301 
L 2067 0 
L 173 0 
z
" transform="scale(0.015625)"/>
     <path id="SourceSerif4-Bold-6f" d="M 1805 -96 
Q 1312 -96 947 112 
Q 582 320 384 694 
Q 186 1069 186 1555 
Q 186 2048 400 2416 
Q 614 2784 982 2989 
Q 1350 3194 1805 3194 
Q 2266 3194 2634 2992 
Q 3002 2790 3219 2425 
Q 3437 2061 3437 1555 
Q 3437 1062 3235 688 
Q 3034 314 2669 109 
Q 2304 -96 1805 -96 
z
M 1805 237 
Q 2080 237 2214 550 
Q 2349 864 2349 1542 
Q 2349 2227 2214 2540 
Q 2080 2854 1805 2854 
Q 1536 2854 1401 2540 
Q 1267 2227 1267 1542 
Q 1267 864 1401 550 
Q 1536 237 1805 237 
z
" transform="scale(0.015625)"/>
     <path id="SourceSerif4-Bold-6d" d="M 179 0 
L 179 301 
L 525 378 
Q 531 608 531 877 
Q 531 1146 531 1344 
L 531 1715 
Q 531 1978 528 2122 
Q 525 2266 512 2458 
L 122 2515 
L 122 2765 
L 1382 3194 
L 1498 3123 
L 1536 2662 
Q 1760 2925 2006 3059 
Q 2253 3194 2534 3194 
Q 3200 3194 3379 2624 
Q 3648 2944 3894 3069 
Q 4141 3194 4416 3194 
Q 4902 3194 5123 2912 
Q 5344 2630 5344 2054 
L 5344 1344 
Q 5344 1139 5344 870 
Q 5344 602 5350 371 
L 5677 301 
L 5677 0 
L 4026 0 
L 4026 301 
L 4339 378 
Q 4346 608 4346 873 
Q 4346 1139 4346 1344 
L 4346 1965 
Q 4346 2323 4262 2448 
Q 4179 2573 3981 2573 
Q 3712 2573 3443 2342 
Q 3450 2285 3453 2221 
Q 3456 2157 3456 2086 
L 3456 1344 
Q 3456 1133 3456 867 
Q 3456 602 3462 365 
L 3763 301 
L 3763 0 
L 2112 0 
L 2112 301 
L 2445 378 
Q 2451 608 2451 873 
Q 2451 1139 2451 1344 
L 2451 1958 
Q 2451 2298 2374 2435 
Q 2298 2573 2086 2573 
Q 1946 2573 1811 2509 
Q 1677 2445 1555 2342 
L 1555 1344 
Q 1555 1146 1555 874 
Q 1555 602 1562 365 
L 1862 301 
L 1862 0 
L 179 0 
z
" transform="scale(0.015625)"/>
     <path id="SourceSerif4-Bold-66" d="M 192 0 
L 192 301 
L 544 371 
Q 550 614 553 857 
Q 557 1101 557 1344 
L 557 2656 
L 141 2656 
L 141 3034 
L 570 3085 
Q 621 3520 739 3795 
Q 858 4070 1107 4307 
Q 1331 4512 1612 4614 
Q 1894 4717 2170 4717 
Q 2438 4717 2656 4608 
Q 2874 4499 2938 4256 
Q 2931 4077 2812 3952 
Q 2694 3827 2477 3827 
Q 2317 3827 2179 3929 
Q 2042 4032 1901 4288 
L 1843 4371 
Q 1830 4358 1817 4339 
Q 1805 4320 1792 4301 
Q 1702 4160 1648 4013 
Q 1594 3866 1574 3651 
Q 1555 3437 1562 3091 
L 2246 3091 
L 2246 2656 
L 1574 2656 
L 1574 1344 
Q 1574 1107 1574 873 
Q 1574 640 1581 403 
L 2074 301 
L 2074 0 
L 192 0 
z
" transform="scale(0.015625)"/>
     <path id="SourceSerif4-Bold-69" d="M 192 0 
L 192 301 
L 538 378 
Q 544 608 544 877 
Q 544 1146 544 1344 
L 544 1651 
Q 544 1914 541 2090 
Q 538 2266 525 2458 
L 134 2515 
L 134 2765 
L 1472 3194 
L 1581 3123 
L 1562 2195 
L 1562 1344 
Q 1562 1146 1562 874 
Q 1562 602 1568 365 
L 1888 301 
L 1888 0 
L 192 0 
z
M 1030 3648 
Q 806 3648 646 3792 
Q 486 3936 486 4154 
Q 486 4378 646 4522 
Q 806 4666 1030 4666 
Q 1254 4666 1411 4522 
Q 1568 4378 1568 4154 
Q 1568 3936 1411 3792 
Q 1254 3648 1030 3648 
z
" transform="scale(0.015625)"/>
     <path id="SourceSerif4-Bold-64" d="M 1267 1530 
Q 1267 1005 1452 733 
Q 1638 461 1933 461 
Q 2150 461 2330 608 
L 2330 2515 
Q 2157 2650 1952 2650 
Q 1658 2650 1462 2374 
Q 1267 2099 1267 1530 
z
M 2413 -70 
L 2362 294 
Q 1990 -96 1459 -96 
Q 1101 -96 809 89 
Q 518 275 352 636 
Q 186 998 186 1517 
Q 186 2042 387 2416 
Q 589 2790 912 2992 
Q 1235 3194 1594 3194 
Q 1843 3194 2028 3107 
Q 2214 3021 2368 2854 
L 2368 4026 
L 1920 4090 
L 1920 4365 
L 3270 4653 
L 3373 4582 
L 3347 3686 
L 3347 358 
L 3661 301 
L 3661 0 
L 2413 -70 
z
" transform="scale(0.015625)"/>
     <path id="SourceSerif4-Bold-6c" d="M 166 0 
L 166 301 
L 525 378 
Q 531 621 534 864 
Q 538 1107 538 1344 
L 538 4026 
L 134 4090 
L 134 4365 
L 1478 4653 
L 1581 4582 
L 1555 3686 
L 1555 1344 
Q 1555 1101 1558 857 
Q 1562 614 1568 371 
L 1920 301 
L 1920 0 
L 166 0 
z
" transform="scale(0.015625)"/>
     <path id="SourceSerif4-Bold-79" d="M 2189 2816 
L 2189 3091 
L 3392 3091 
L 3392 2816 
L 3027 2752 
L 1862 -262 
Q 1626 -877 1370 -1197 
Q 1114 -1517 666 -1517 
Q 410 -1517 214 -1376 
Q 19 -1235 6 -1037 
Q 45 -826 195 -723 
Q 346 -621 531 -621 
Q 659 -621 806 -675 
Q 954 -730 1082 -922 
L 1120 -979 
Q 1402 -698 1562 -250 
L 1562 -243 
L 288 2765 
L -13 2816 
L -13 3091 
L 1805 3091 
L 1805 2816 
L 1376 2739 
L 2003 1011 
L 2317 1907 
L 2611 2739 
L 2189 2816 
z
" transform="scale(0.015625)"/>
     <path id="SourceSerif4-Bold-61" d="M 2656 -90 
Q 2374 -90 2201 32 
Q 2029 154 1958 371 
Q 1747 154 1558 29 
Q 1370 -96 1037 -96 
Q 666 -96 432 115 
Q 198 326 198 723 
Q 198 954 300 1142 
Q 403 1331 672 1488 
Q 941 1645 1434 1779 
Q 1562 1811 1683 1843 
Q 1805 1875 1926 1907 
L 1926 2125 
Q 1926 2554 1817 2707 
Q 1709 2861 1402 2861 
Q 1357 2861 1318 2861 
Q 1280 2861 1229 2854 
L 1197 2573 
Q 1190 2259 1052 2118 
Q 915 1978 730 1978 
Q 378 1978 301 2298 
Q 326 2694 704 2944 
Q 1082 3194 1766 3194 
Q 2387 3194 2649 2912 
Q 2912 2630 2912 1984 
L 2912 550 
Q 2912 365 3059 365 
Q 3110 365 3155 393 
Q 3200 422 3251 506 
L 3424 390 
Q 3309 134 3126 22 
Q 2944 -90 2656 -90 
z
M 1146 858 
Q 1146 634 1258 528 
Q 1370 422 1530 422 
Q 1626 422 1715 451 
Q 1805 480 1926 557 
L 1926 1626 
Q 1862 1606 1801 1587 
Q 1741 1568 1683 1549 
Q 1389 1459 1267 1280 
Q 1146 1101 1146 858 
z
" transform="scale(0.015625)"/>
     <path id="SourceSerif4-Bold-2d" d="M 256 1350 
L 256 1926 
L 1914 1926 
L 1914 1350 
L 256 1350 
z
" transform="scale(0.015625)"/>
    </defs>
    <use xlink:href="#SourceSerif4-Bold-54"/>
    <use xlink:href="#SourceSerif4-Bold-68" transform="translate(63.399994 0)"/>
    <use xlink:href="#SourceSerif4-Bold-65" transform="translate(125.099991 0)"/>
    <use xlink:href="#SourceSerif4-Bold-20" transform="translate(177.199982 0)"/>
    <use xlink:href="#SourceSerif4-Bold-73" transform="translate(198.599976 0)"/>
    <use xlink:href="#SourceSerif4-Bold-75" transform="translate(244.09996 0)"/>
    <use xlink:href="#SourceSerif4-Bold-62" transform="translate(304.799957 0)"/>
    <use xlink:href="#SourceSerif4-Bold-6a" transform="translate(365.799942 0)"/>
    <use xlink:href="#SourceSerif4-Bold-65" transform="translate(396.499939 0)"/>
    <use xlink:href="#SourceSerif4-Bold-63" transform="translate(448.59993 0)"/>
    <use xlink:href="#SourceSerif4-Bold-74" transform="translate(499.899918 0)"/>
    <use xlink:href="#SourceSerif4-Bold-2013" transform="translate(535.699905 0)"/>
    <use xlink:href="#SourceSerif4-Bold-70" transform="translate(589.599899 0)"/>
    <use xlink:href="#SourceSerif4-Bold-72" transform="translate(650.69989 0)"/>
    <use xlink:href="#SourceSerif4-Bold-6f" transform="translate(697.199875 0)"/>
    <use xlink:href="#SourceSerif4-Bold-6d" transform="translate(753.69986 0)"/>
    <use xlink:href="#SourceSerif4-Bold-70" transform="translate(844.399841 0)"/>
    <use xlink:href="#SourceSerif4-Bold-74" transform="translate(905.499832 0)"/>
    <use xlink:href="#SourceSerif4-Bold-20" transform="translate(941.29982 0)"/>
    <use xlink:href="#SourceSerif4-Bold-66" transform="translate(962.699814 0)"/>
    <use xlink:href="#SourceSerif4-Bold-69" transform="translate(998.899811 0)"/>
    <use xlink:href="#SourceSerif4-Bold-64" transform="translate(1030.499802 0)"/>
    <use xlink:href="#SourceSerif4-Bold-65" transform="translate(1089.899796 0)"/>
    <use xlink:href="#SourceSerif4-Bold-6c" transform="translate(1141.999786 0)"/>
    <use xlink:href="#SourceSerif4-Bold-69" transform="translate(1174.299774 0)"/>
    <use xlink:href="#SourceSerif4-Bold-74" transform="translate(1205.899765 0)"/>
    <use xlink:href="#SourceSerif4-Bold-79" transform="translate(1241.699753 0)"/>
    <use xlink:href="#SourceSerif4-Bold-20" transform="translate(1295.099747 0)"/>
    <use xlink:href="#SourceSerif4-Bold-74" transform="translate(1316.499741 0)"/>
    <use xlink:href="#SourceSerif4-Bold-72" transform="translate(1352.299728 0)"/>
    <use xlink:href="#SourceSerif4-Bold-61" transform="translate(1398.799713 0)"/>
    <use xlink:href="#SourceSerif4-Bold-64" transform="translate(1451.899704 0)"/>
    <use xlink:href="#SourceSerif4-Bold-65" transform="translate(1511.299698 0)"/>
    <use xlink:href="#SourceSerif4-Bold-2d" transform="translate(1563.399689 0)"/>
    <use xlink:href="#SourceSerif4-Bold-6f" transform="translate(1597.299683 0)"/>
    <use xlink:href="#SourceSerif4-Bold-66" transform="translate(1653.799667 0)"/>
    <use xlink:href="#SourceSerif4-Bold-66" transform="translate(1689.999664 0)"/>
   </g>
  </g>
  <g id="text_19">
   <!-- DreamBooth's central tension: aggressive fine-tuning improves subject identity (DINO ↑) but -->
   <g style="fill: #1a1a2e" transform="translate(0.343125 606.177) scale(0.18 -0.18)">
    <defs>
     <path id="Inter-Italic-44" d="M 1828 0 
L 600 0 
L 684 525 
L 1772 525 
Q 2344 525 2755 744 
Q 3166 963 3417 1370 
Q 3669 1778 3759 2338 
Q 3853 2900 3736 3301 
Q 3619 3703 3292 3917 
Q 2966 4131 2428 4131 
L 1259 4131 
L 1347 4656 
L 2481 4656 
Q 3163 4656 3619 4376 
Q 4075 4097 4265 3576 
Q 4456 3056 4334 2331 
Q 4213 1597 3889 1076 
Q 3566 556 3048 278 
Q 2531 0 1828 0 
z
M 1638 4656 
L 866 0 
L 272 0 
L 1044 4656 
L 1638 4656 
z
" transform="scale(0.015625)"/>
     <path id="Inter-Italic-72" d="M 206 0 
L 784 3494 
L 1328 3494 
L 1241 2956 
L 1278 2956 
Q 1416 3222 1692 3383 
Q 1969 3544 2281 3544 
Q 2344 3544 2428 3541 
Q 2513 3538 2563 3534 
L 2469 2969 
Q 2431 2975 2336 2987 
Q 2241 3000 2138 3000 
Q 1888 3000 1672 2895 
Q 1456 2791 1314 2608 
Q 1172 2425 1131 2188 
L 769 0 
L 206 0 
z
" transform="scale(0.015625)"/>
     <path id="Inter-Italic-6d" d="M 203 0 
L 784 3494 
L 1331 3494 
L 1206 2713 
L 1159 2728 
Q 1278 3016 1461 3198 
Q 1644 3381 1858 3468 
Q 2072 3556 2288 3556 
Q 2556 3556 2734 3440 
Q 2913 3325 3002 3129 
Q 3091 2934 3097 2688 
L 3028 2725 
Q 3134 2984 3325 3170 
Q 3516 3356 3762 3456 
Q 4009 3556 4278 3556 
Q 4591 3556 4825 3420 
Q 5059 3284 5168 3014 
Q 5278 2744 5209 2338 
L 4822 0 
L 4259 0 
L 4653 2363 
Q 4697 2616 4626 2766 
Q 4556 2916 4414 2980 
Q 4272 3044 4097 3044 
Q 3847 3044 3650 2939 
Q 3453 2834 3329 2657 
Q 3206 2481 3169 2263 
L 2794 0 
L 2231 0 
L 2631 2416 
Q 2681 2713 2522 2878 
Q 2363 3044 2088 3044 
Q 1875 3044 1672 2945 
Q 1469 2847 1322 2653 
Q 1175 2459 1128 2178 
L 766 0 
L 203 0 
z
" transform="scale(0.015625)"/>
     <path id="Inter-Italic-42" d="M 272 0 
L 1044 4656 
L 2675 4656 
Q 3163 4656 3455 4486 
Q 3747 4316 3861 4030 
Q 3975 3744 3919 3397 
Q 3875 3113 3736 2919 
Q 3597 2725 3400 2608 
Q 3203 2491 2981 2431 
L 2981 2400 
Q 3200 2388 3395 2245 
Q 3591 2103 3694 1842 
Q 3797 1581 3738 1213 
Q 3681 863 3478 589 
Q 3275 316 2909 158 
Q 2544 0 1997 0 
L 272 0 
z
M 953 522 
L 2031 522 
Q 2584 522 2856 751 
Q 3128 981 3178 1294 
Q 3216 1525 3127 1709 
Q 3038 1894 2842 2003 
Q 2647 2113 2359 2113 
L 1219 2113 
L 953 522 
z
M 1300 2613 
L 2309 2613 
Q 2556 2613 2778 2716 
Q 3000 2819 3156 3005 
Q 3313 3191 3353 3441 
Q 3403 3731 3236 3932 
Q 3069 4134 2613 4134 
L 1553 4134 
L 1300 2613 
z
" transform="scale(0.015625)"/>
     <path id="Inter-Italic-27" d="M 913 2884 
L 1138 4656 
L 1744 4656 
L 1384 2884 
L 913 2884 
z
" transform="scale(0.015625)"/>
     <path id="Inter-Italic-73" d="M 1409 -75 
Q 1059 -75 798 25 
Q 538 125 383 315 
Q 228 506 197 781 
Q 194 803 192 823 
Q 191 844 191 866 
L 734 956 
Q 759 669 937 544 
Q 1116 419 1419 419 
Q 1672 419 1872 497 
Q 2072 575 2197 703 
Q 2322 831 2347 984 
Q 2372 1150 2272 1261 
Q 2172 1372 1925 1431 
L 1366 1569 
Q 909 1681 711 1928 
Q 513 2175 575 2556 
Q 625 2847 825 3069 
Q 1025 3291 1329 3414 
Q 1634 3538 1997 3538 
Q 2500 3538 2764 3333 
Q 3028 3128 3113 2809 
Q 3122 2778 3130 2745 
Q 3138 2713 3141 2678 
L 2625 2584 
Q 2584 2772 2448 2915 
Q 2313 3059 1988 3059 
Q 1772 3059 1587 2987 
Q 1403 2916 1283 2794 
Q 1163 2672 1138 2516 
Q 1106 2334 1222 2228 
Q 1338 2122 1631 2050 
L 2138 1925 
Q 2594 1813 2791 1566 
Q 2988 1319 2925 947 
Q 2888 725 2759 537 
Q 2631 350 2429 212 
Q 2228 75 1968 0 
Q 1709 -75 1409 -75 
z
" transform="scale(0.015625)"/>
     <path id="Inter-Italic-63" d="M 1650 -75 
Q 1228 -75 925 101 
Q 622 278 458 600 
Q 294 922 294 1353 
Q 294 1769 423 2159 
Q 553 2550 797 2861 
Q 1041 3172 1389 3355 
Q 1738 3538 2178 3538 
Q 2438 3538 2658 3470 
Q 2878 3403 3045 3275 
Q 3213 3147 3319 2965 
Q 3425 2784 3459 2556 
L 2909 2434 
Q 2894 2569 2837 2678 
Q 2781 2788 2687 2867 
Q 2594 2947 2464 2990 
Q 2334 3034 2166 3034 
Q 1847 3034 1603 2884 
Q 1359 2734 1192 2487 
Q 1025 2241 940 1945 
Q 856 1650 856 1359 
Q 856 1100 939 887 
Q 1022 675 1200 551 
Q 1378 428 1663 428 
Q 1844 428 2005 478 
Q 2166 528 2298 617 
Q 2431 706 2531 826 
Q 2631 947 2691 1088 
L 3209 906 
Q 3103 675 2940 494 
Q 2778 313 2575 186 
Q 2372 59 2137 -8 
Q 1903 -75 1650 -75 
z
" transform="scale(0.015625)"/>
     <path id="Inter-Italic-6e" d="M 1113 2075 
L 766 0 
L 203 0 
L 784 3494 
L 1325 3494 
L 1188 2647 
L 1106 2666 
Q 1341 3141 1659 3339 
Q 1978 3538 2369 3538 
Q 2731 3538 2981 3388 
Q 3231 3238 3336 2941 
Q 3441 2644 3366 2200 
L 3000 0 
L 2438 0 
L 2803 2191 
Q 2872 2600 2703 2815 
Q 2534 3031 2181 3031 
Q 1925 3031 1700 2917 
Q 1475 2803 1319 2589 
Q 1163 2375 1113 2075 
z
" transform="scale(0.015625)"/>
     <path id="Inter-Italic-3a" d="M 656 -41 
Q 475 -41 361 93 
Q 247 228 278 419 
Q 306 584 439 692 
Q 572 800 725 800 
Q 916 800 1023 665 
Q 1131 531 1106 353 
Q 1084 191 953 75 
Q 822 -41 656 -41 
z
M 1072 2519 
Q 891 2519 777 2653 
Q 663 2788 694 2979 
Q 722 3144 855 3252 
Q 988 3360 1141 3360 
Q 1332 3360 1439 3225 
Q 1547 3091 1522 2913 
Q 1500 2751 1369 2635 
Q 1238 2519 1072 2519 
z
" transform="scale(0.015625)"/>
     <path id="Inter-Italic-76" d="M 1216 0 
L 459 3494 
L 1047 3494 
L 1450 1422 
Q 1513 1100 1544 779 
Q 1575 459 1616 159 
L 1409 159 
Q 1550 459 1684 778 
Q 1819 1097 1991 1422 
L 3078 3494 
L 3719 3494 
L 1806 0 
L 1216 0 
z
" transform="scale(0.015625)"/>
     <path id="Inter-Italic-66" d="M 2438 3494 
L 2363 3038 
L 278 3038 
L 353 3494 
L 2438 3494 
z
M -175 -1400 
Q -241 -1400 -305 -1394 
Q -369 -1388 -426 -1377 
Q -484 -1366 -541 -1347 
L -400 -844 
Q -356 -859 -250 -870 
Q -144 -881 -103 -881 
Q 122 -881 251 -757 
Q 381 -634 425 -366 
L 1103 3734 
Q 1166 4103 1328 4358 
Q 1491 4613 1747 4744 
Q 2003 4875 2341 4875 
Q 2463 4875 2572 4856 
Q 2681 4838 2794 4813 
L 2638 4331 
Q 2584 4344 2468 4350 
Q 2353 4356 2259 4356 
Q 2009 4356 1865 4206 
Q 1722 4056 1669 3744 
L 991 -363 
Q 934 -703 781 -934 
Q 628 -1166 386 -1283 
Q 144 -1400 -175 -1400 
z
" transform="scale(0.015625)"/>
     <path id="Inter-Italic-2d" d="M 2581 2247 
L 2494 1728 
L 450 1728 
L 538 2247 
L 2581 2247 
z
" transform="scale(0.015625)"/>
     <path id="Inter-Italic-75" d="M 1384 -44 
Q 1034 -44 792 100 
Q 550 244 448 537 
Q 347 831 419 1275 
L 784 3494 
L 1347 3494 
L 991 1322 
Q 925 922 1095 692 
Q 1266 463 1634 463 
Q 1881 463 2098 570 
Q 2316 678 2469 887 
Q 2622 1097 2672 1400 
L 3016 3494 
L 3581 3494 
L 3003 0 
L 2459 0 
L 2600 847 
L 2675 847 
Q 2434 356 2103 156 
Q 1772 -44 1384 -44 
z
" transform="scale(0.015625)"/>
     <path id="Inter-Italic-70" d="M -13 -1306 
L 784 3494 
L 1328 3494 
L 1234 2934 
L 1263 2934 
Q 1338 3041 1470 3183 
Q 1603 3325 1822 3431 
Q 2041 3538 2372 3538 
Q 2756 3538 3037 3369 
Q 3319 3200 3472 2887 
Q 3625 2575 3625 2141 
Q 3625 1734 3504 1339 
Q 3384 944 3156 625 
Q 2928 306 2598 115 
Q 2269 -75 1850 -75 
Q 1509 -75 1320 42 
Q 1131 159 1042 309 
Q 953 459 913 556 
L 859 556 
L 550 -1306 
L -13 -1306 
z
M 1775 428 
Q 2088 428 2327 581 
Q 2566 734 2730 986 
Q 2894 1238 2976 1536 
Q 3059 1834 3059 2125 
Q 3059 2525 2870 2779 
Q 2681 3034 2278 3034 
Q 1963 3034 1725 2886 
Q 1488 2738 1330 2491 
Q 1172 2244 1092 1944 
Q 1013 1644 1013 1341 
Q 1013 925 1203 676 
Q 1394 428 1775 428 
z
" transform="scale(0.015625)"/>
     <path id="Inter-Italic-6a" d="M 781 3494 
L 1347 3494 
L 725 -250 
Q 672 -581 519 -817 
Q 366 -1053 117 -1179 
Q -131 -1306 -472 -1306 
L -584 -1306 
L -500 -788 
L -397 -788 
Q -156 -788 -17 -650 
Q 122 -513 163 -250 
L 781 3494 
z
M 1156 4066 
Q 997 4066 900 4175 
Q 803 4284 828 4438 
Q 853 4594 987 4701 
Q 1122 4809 1281 4809 
Q 1444 4809 1541 4701 
Q 1638 4594 1613 4438 
Q 1588 4284 1453 4175 
Q 1319 4066 1156 4066 
z
" transform="scale(0.015625)"/>
     <path id="Inter-Italic-79" d="M -59 -1266 
L 166 -778 
L 219 -791 
Q 391 -831 536 -811 
Q 681 -791 811 -673 
Q 941 -556 1066 -309 
L 1213 -19 
L 459 3494 
L 1047 3494 
L 1450 1422 
Q 1513 1100 1542 779 
Q 1572 459 1613 159 
L 1406 159 
Q 1547 459 1681 779 
Q 1816 1100 1988 1422 
L 3078 3494 
L 3719 3494 
L 1519 -522 
Q 1369 -797 1189 -976 
Q 1009 -1156 798 -1243 
Q 588 -1331 338 -1331 
Q 200 -1331 92 -1309 
Q -16 -1288 -59 -1266 
z
" transform="scale(0.015625)"/>
     <path id="Inter-Italic-49" d="M 1638 4656 
L 866 0 
L 272 0 
L 1044 4656 
L 1638 4656 
z
" transform="scale(0.015625)"/>
     <path id="Inter-Italic-4e" d="M 272 0 
L 1044 4656 
L 1725 4656 
L 3125 1678 
Q 3169 1584 3245 1407 
Q 3322 1231 3411 995 
Q 3500 759 3581 484 
L 3516 484 
Q 3531 753 3559 995 
Q 3588 1238 3619 1444 
Q 3650 1650 3675 1800 
L 4147 4656 
L 4741 4656 
L 3969 0 
L 3284 0 
L 2034 2650 
Q 1956 2819 1873 3011 
Q 1791 3203 1683 3475 
Q 1575 3747 1413 4153 
L 1500 4153 
Q 1453 3775 1417 3484 
Q 1381 3194 1354 2987 
Q 1328 2781 1306 2656 
L 869 0 
L 272 0 
z
" transform="scale(0.015625)"/>
     <path id="Inter-Italic-4f" d="M 2184 -63 
Q 1656 -63 1262 162 
Q 869 388 651 808 
Q 434 1228 434 1813 
Q 434 2366 606 2886 
Q 778 3406 1103 3818 
Q 1428 4231 1884 4475 
Q 2341 4719 2906 4719 
Q 3434 4719 3825 4494 
Q 4216 4269 4433 3850 
Q 4650 3431 4650 2847 
Q 4650 2291 4478 1770 
Q 4306 1250 3982 836 
Q 3659 422 3204 179 
Q 2750 -63 2184 -63 
z
M 2206 488 
Q 2644 488 2991 688 
Q 3338 888 3580 1225 
Q 3822 1563 3948 1980 
Q 4075 2397 4075 2831 
Q 4075 3269 3923 3567 
Q 3772 3866 3503 4017 
Q 3234 4169 2884 4169 
Q 2447 4169 2100 3969 
Q 1753 3769 1509 3431 
Q 1266 3094 1137 2678 
Q 1009 2263 1009 1828 
Q 1009 1391 1162 1092 
Q 1316 794 1586 641 
Q 1856 488 2206 488 
z
" transform="scale(0.015625)"/>
     <path id="Inter-Italic-2191" d="M 788 2694 
L 3163 4731 
L 4863 2694 
L 4438 2331 
L 3891 2991 
Q 3759 3153 3617 3356 
Q 3475 3559 3347 3764 
Q 3219 3969 3122 4128 
L 3206 4041 
Q 3213 3913 3214 3783 
Q 3216 3653 3208 3523 
Q 3200 3394 3178 3263 
L 2638 0 
L 2119 0 
L 2659 3263 
Q 2681 3394 2715 3523 
Q 2750 3653 2795 3783 
Q 2841 3913 2888 4041 
L 3003 4128 
Q 2891 4006 2750 3861 
Q 2609 3716 2456 3559 
Q 2303 3403 2148 3258 
Q 1994 3113 1853 2991 
L 1088 2331 
L 788 2694 
z
" transform="scale(0.015625)"/>
    </defs>
    <use xlink:href="#Inter-Italic-44"/>
    <use xlink:href="#Inter-Italic-72" transform="translate(72.119141 0)"/>
    <use xlink:href="#Inter-Italic-65" transform="translate(109.814453 0)"/>
    <use xlink:href="#Inter-Italic-61" transform="translate(167.382812 0)"/>
    <use xlink:href="#Inter-Italic-6d" transform="translate(228.759766 0)"/>
    <use xlink:href="#Inter-Italic-42" transform="translate(316.357422 0)"/>
    <use xlink:href="#Inter-Italic-6f" transform="translate(381.787109 0)"/>
    <use xlink:href="#Inter-Italic-6f" transform="translate(441.796875 0)"/>
    <use xlink:href="#Inter-Italic-74" transform="translate(501.806641 0)"/>
    <use xlink:href="#Inter-Italic-68" transform="translate(534.619141 0)"/>
    <use xlink:href="#Inter-Italic-27" transform="translate(593.75 0)"/>
    <use xlink:href="#Inter-Italic-73" transform="translate(623.730469 0)"/>
    <use xlink:href="#Inter-Italic-20" transform="translate(676.464844 0)"/>
    <use xlink:href="#Inter-Italic-63" transform="translate(704.589844 0)"/>
    <use xlink:href="#Inter-Italic-65" transform="translate(761.767578 0)"/>
    <use xlink:href="#Inter-Italic-6e" transform="translate(819.335938 0)"/>
    <use xlink:href="#Inter-Italic-74" transform="translate(878.466797 0)"/>
    <use xlink:href="#Inter-Italic-72" transform="translate(911.279297 0)"/>
    <use xlink:href="#Inter-Italic-61" transform="translate(948.974609 0)"/>
    <use xlink:href="#Inter-Italic-6c" transform="translate(1010.351562 0)"/>
    <use xlink:href="#Inter-Italic-20" transform="translate(1034.570312 0)"/>
    <use xlink:href="#Inter-Italic-74" transform="translate(1062.695312 0)"/>
    <use xlink:href="#Inter-Italic-65" transform="translate(1095.507812 0)"/>
    <use xlink:href="#Inter-Italic-6e" transform="translate(1153.076172 0)"/>
    <use xlink:href="#Inter-Italic-73" transform="translate(1212.207031 0)"/>
    <use xlink:href="#Inter-Italic-69" transform="translate(1264.941406 0)"/>
    <use xlink:href="#Inter-Italic-6f" transform="translate(1289.208984 0)"/>
    <use xlink:href="#Inter-Italic-6e" transform="translate(1349.21875 0)"/>
    <use xlink:href="#Inter-Italic-3a" transform="translate(1408.349609 0)"/>
    <use xlink:href="#Inter-Italic-20" transform="translate(1437.158203 0)"/>
    <use xlink:href="#Inter-Italic-61" transform="translate(1465.283203 0)"/>
    <use xlink:href="#Inter-Italic-67" transform="translate(1526.660156 0)"/>
    <use xlink:href="#Inter-Italic-67" transform="translate(1587.988281 0)"/>
    <use xlink:href="#Inter-Italic-72" transform="translate(1649.316406 0)"/>
    <use xlink:href="#Inter-Italic-65" transform="translate(1687.011719 0)"/>
    <use xlink:href="#Inter-Italic-73" transform="translate(1744.580078 0)"/>
    <use xlink:href="#Inter-Italic-73" transform="translate(1797.314453 0)"/>
    <use xlink:href="#Inter-Italic-69" transform="translate(1850.048828 0)"/>
    <use xlink:href="#Inter-Italic-76" transform="translate(1874.316406 0)"/>
    <use xlink:href="#Inter-Italic-65" transform="translate(1930.517578 0)"/>
    <use xlink:href="#Inter-Italic-20" transform="translate(1988.085938 0)"/>
    <use xlink:href="#Inter-Italic-66" transform="translate(2016.210938 0)"/>
    <use xlink:href="#Inter-Italic-69" transform="translate(2053.515625 0)"/>
    <use xlink:href="#Inter-Italic-6e" transform="translate(2077.783203 0)"/>
    <use xlink:href="#Inter-Italic-65" transform="translate(2136.914062 0)"/>
    <use xlink:href="#Inter-Italic-2d" transform="translate(2194.482422 0)"/>
    <use xlink:href="#Inter-Italic-74" transform="translate(2240.576172 0)"/>
    <use xlink:href="#Inter-Italic-75" transform="translate(2273.388672 0)"/>
    <use xlink:href="#Inter-Italic-6e" transform="translate(2332.568359 0)"/>
    <use xlink:href="#Inter-Italic-69" transform="translate(2391.699219 0)"/>
    <use xlink:href="#Inter-Italic-6e" transform="translate(2415.966797 0)"/>
    <use xlink:href="#Inter-Italic-67" transform="translate(2475.097656 0)"/>
    <use xlink:href="#Inter-Italic-20" transform="translate(2536.425781 0)"/>
    <use xlink:href="#Inter-Italic-69" transform="translate(2564.550781 0)"/>
    <use xlink:href="#Inter-Italic-6d" transform="translate(2588.818359 0)"/>
    <use xlink:href="#Inter-Italic-70" transform="translate(2676.416016 0)"/>
    <use xlink:href="#Inter-Italic-72" transform="translate(2737.695312 0)"/>
    <use xlink:href="#Inter-Italic-6f" transform="translate(2775.390625 0)"/>
    <use xlink:href="#Inter-Italic-76" transform="translate(2835.400391 0)"/>
    <use xlink:href="#Inter-Italic-65" transform="translate(2891.601562 0)"/>
    <use xlink:href="#Inter-Italic-73" transform="translate(2949.169922 0)"/>
    <use xlink:href="#Inter-Italic-20" transform="translate(3001.904297 0)"/>
    <use xlink:href="#Inter-Italic-73" transform="translate(3030.029297 0)"/>
    <use xlink:href="#Inter-Italic-75" transform="translate(3082.763672 0)"/>
    <use xlink:href="#Inter-Italic-62" transform="translate(3141.943359 0)"/>
    <use xlink:href="#Inter-Italic-6a" transform="translate(3203.222656 0)"/>
    <use xlink:href="#Inter-Italic-65" transform="translate(3227.441406 0)"/>
    <use xlink:href="#Inter-Italic-63" transform="translate(3285.009766 0)"/>
    <use xlink:href="#Inter-Italic-74" transform="translate(3342.1875 0)"/>
    <use xlink:href="#Inter-Italic-20" transform="translate(3375 0)"/>
    <use xlink:href="#Inter-Italic-69" transform="translate(3403.125 0)"/>
    <use xlink:href="#Inter-Italic-64" transform="translate(3427.392578 0)"/>
    <use xlink:href="#Inter-Italic-65" transform="translate(3488.671875 0)"/>
    <use xlink:href="#Inter-Italic-6e" transform="translate(3546.240234 0)"/>
    <use xlink:href="#Inter-Italic-74" transform="translate(3605.371094 0)"/>
    <use xlink:href="#Inter-Italic-69" transform="translate(3638.183594 0)"/>
    <use xlink:href="#Inter-Italic-74" transform="translate(3662.451172 0)"/>
    <use xlink:href="#Inter-Italic-79" transform="translate(3695.263672 0)"/>
    <use xlink:href="#Inter-Italic-20" transform="translate(3751.464844 0)"/>
    <use xlink:href="#Inter-Italic-28" transform="translate(3779.589844 0)"/>
    <use xlink:href="#Inter-Italic-44" transform="translate(3816.064453 0)"/>
    <use xlink:href="#Inter-Italic-49" transform="translate(3888.183594 0)"/>
    <use xlink:href="#Inter-Italic-4e" transform="translate(3915.039062 0)"/>
    <use xlink:href="#Inter-Italic-4f" transform="translate(3990.380859 0)"/>
    <use xlink:href="#Inter-Italic-20" transform="translate(4066.845703 0)"/>
    <use xlink:href="#Inter-Italic-2191" transform="translate(4094.970703 0)"/>
    <use xlink:href="#Inter-Italic-29" transform="translate(4178.369141 0)"/>
    <use xlink:href="#Inter-Italic-20" transform="translate(4214.794922 0)"/>
    <use xlink:href="#Inter-Italic-62" transform="translate(4242.919922 0)"/>
    <use xlink:href="#Inter-Italic-75" transform="translate(4304.199219 0)"/>
    <use xlink:href="#Inter-Italic-74" transform="translate(4363.378906 0)"/>
   </g>
   <!-- risks language drift on prompts (CLIP-T ↓). Both our variants land near the paper's Pareto -->
   <g style="fill: #1a1a2e" transform="translate(9.892969 629.569687) scale(0.18 -0.18)">
    <defs>
     <path id="Inter-Italic-6b" d="M 941 1256 
L 1056 1953 
L 1159 1953 
L 2906 3494 
L 3603 3494 
L 1713 1834 
L 1650 1834 
L 941 1256 
z
M 203 0 
L 975 4656 
L 1538 4656 
L 766 0 
L 203 0 
z
M 2413 0 
L 1356 1709 
L 1825 2106 
L 3134 0 
L 2413 0 
z
" transform="scale(0.015625)"/>
     <path id="Inter-Italic-43" d="M 2181 -63 
Q 1653 -63 1259 162 
Q 866 388 650 808 
Q 434 1228 434 1813 
Q 434 2363 606 2883 
Q 778 3403 1100 3817 
Q 1422 4231 1878 4475 
Q 2334 4719 2903 4719 
Q 3263 4719 3564 4616 
Q 3866 4513 4089 4316 
Q 4313 4119 4436 3836 
Q 4559 3553 4563 3191 
L 3969 3191 
Q 3959 3428 3873 3609 
Q 3788 3791 3641 3916 
Q 3494 4041 3300 4105 
Q 3106 4169 2881 4169 
Q 2444 4169 2097 3969 
Q 1750 3769 1508 3431 
Q 1266 3094 1137 2676 
Q 1009 2259 1009 1828 
Q 1009 1391 1162 1091 
Q 1316 791 1584 639 
Q 1853 488 2203 488 
Q 2441 488 2667 552 
Q 2894 616 3092 741 
Q 3291 866 3444 1047 
Q 3597 1228 3684 1466 
L 4281 1466 
Q 4159 1109 3950 828 
Q 3741 547 3461 347 
Q 3181 147 2856 42 
Q 2531 -63 2181 -63 
z
" transform="scale(0.015625)"/>
     <path id="Inter-Italic-4c" d="M 272 0 
L 1044 4656 
L 1638 4656 
L 953 525 
L 3109 525 
L 3022 0 
L 272 0 
z
" transform="scale(0.015625)"/>
     <path id="Inter-Italic-50" d="M 272 0 
L 1044 4656 
L 2638 4656 
Q 3178 4656 3497 4461 
Q 3816 4266 3933 3931 
Q 4050 3597 3981 3181 
Q 3916 2766 3689 2427 
Q 3463 2088 3078 1886 
Q 2694 1684 2150 1684 
L 1022 1684 
L 1109 2206 
L 2206 2206 
Q 2584 2206 2829 2336 
Q 3075 2466 3211 2687 
Q 3347 2909 3391 3178 
Q 3434 3450 3368 3665 
Q 3303 3881 3098 4007 
Q 2894 4134 2519 4134 
L 1550 4134 
L 866 0 
L 272 0 
z
" transform="scale(0.015625)"/>
     <path id="Inter-Italic-54" d="M 706 4134 
L 794 4656 
L 4313 4656 
L 4225 4134 
L 2766 4134 
L 2081 0 
L 1488 0 
L 2172 4134 
L 706 4134 
z
" transform="scale(0.015625)"/>
     <path id="Inter-Italic-2193" d="M 4744 1963 
L 2369 -75 
L 669 1963 
L 1094 2325 
L 1641 1666 
Q 1775 1506 1915 1301 
Q 2056 1097 2186 894 
Q 2316 691 2409 528 
L 2325 616 
Q 2322 747 2319 876 
Q 2316 1006 2323 1136 
Q 2331 1266 2353 1394 
L 2894 4656 
L 3413 4656 
L 2872 1394 
Q 2850 1266 2815 1136 
Q 2781 1006 2737 876 
Q 2694 747 2644 616 
L 2528 528 
Q 2641 650 2781 795 
Q 2922 941 3075 1097 
Q 3228 1253 3383 1398 
Q 3538 1544 3678 1666 
L 4444 2325 
L 4744 1963 
z
" transform="scale(0.015625)"/>
     <path id="Inter-Italic-2e" d="M 656 -41 
Q 475 -41 361 93 
Q 247 228 278 419 
Q 306 584 439 692 
Q 572 800 725 800 
Q 916 800 1023 665 
Q 1131 531 1106 353 
Q 1084 191 953 75 
Q 822 -41 656 -41 
z
" transform="scale(0.015625)"/>
    </defs>
    <use xlink:href="#Inter-Italic-72"/>
    <use xlink:href="#Inter-Italic-69" transform="translate(37.695312 0)"/>
    <use xlink:href="#Inter-Italic-73" transform="translate(61.962891 0)"/>
    <use xlink:href="#Inter-Italic-6b" transform="translate(114.697266 0)"/>
    <use xlink:href="#Inter-Italic-73" transform="translate(169.628906 0)"/>
    <use xlink:href="#Inter-Italic-20" transform="translate(222.363281 0)"/>
    <use xlink:href="#Inter-Italic-6c" transform="translate(250.488281 0)"/>
    <use xlink:href="#Inter-Italic-61" transform="translate(274.707031 0)"/>
    <use xlink:href="#Inter-Italic-6e" transform="translate(336.083984 0)"/>
    <use xlink:href="#Inter-Italic-67" transform="translate(395.214844 0)"/>
    <use xlink:href="#Inter-Italic-75" transform="translate(456.542969 0)"/>
    <use xlink:href="#Inter-Italic-61" transform="translate(515.722656 0)"/>
    <use xlink:href="#Inter-Italic-67" transform="translate(577.099609 0)"/>
    <use xlink:href="#Inter-Italic-65" transform="translate(638.427734 0)"/>
    <use xlink:href="#Inter-Italic-20" transform="translate(695.996094 0)"/>
    <use xlink:href="#Inter-Italic-64" transform="translate(724.121094 0)"/>
    <use xlink:href="#Inter-Italic-72" transform="translate(785.400391 0)"/>
    <use xlink:href="#Inter-Italic-69" transform="translate(823.095703 0)"/>
    <use xlink:href="#Inter-Italic-66" transform="translate(847.363281 0)"/>
    <use xlink:href="#Inter-Italic-74" transform="translate(884.667969 0)"/>
    <use xlink:href="#Inter-Italic-20" transform="translate(917.480469 0)"/>
    <use xlink:href="#Inter-Italic-6f" transform="translate(945.605469 0)"/>
    <use xlink:href="#Inter-Italic-6e" transform="translate(1005.615234 0)"/>
    <use xlink:href="#Inter-Italic-20" transform="translate(1064.746094 0)"/>
    <use xlink:href="#Inter-Italic-70" transform="translate(1092.871094 0)"/>
    <use xlink:href="#Inter-Italic-72" transform="translate(1154.150391 0)"/>
    <use xlink:href="#Inter-Italic-6f" transform="translate(1191.845703 0)"/>
    <use xlink:href="#Inter-Italic-6d" transform="translate(1251.855469 0)"/>
    <use xlink:href="#Inter-Italic-70" transform="translate(1339.453125 0)"/>
    <use xlink:href="#Inter-Italic-74" transform="translate(1400.732422 0)"/>
    <use xlink:href="#Inter-Italic-73" transform="translate(1433.544922 0)"/>
    <use xlink:href="#Inter-Italic-20" transform="translate(1486.279297 0)"/>
    <use xlink:href="#Inter-Italic-28" transform="translate(1514.404297 0)"/>
    <use xlink:href="#Inter-Italic-43" transform="translate(1550.878906 0)"/>
    <use xlink:href="#Inter-Italic-4c" transform="translate(1623.876953 0)"/>
    <use xlink:href="#Inter-Italic-49" transform="translate(1680.419922 0)"/>
    <use xlink:href="#Inter-Italic-50" transform="translate(1707.275391 0)"/>
    <use xlink:href="#Inter-Italic-2d" transform="translate(1771.142578 0)"/>
    <use xlink:href="#Inter-Italic-54" transform="translate(1817.236328 0)"/>
    <use xlink:href="#Inter-Italic-20" transform="translate(1881.884766 0)"/>
    <use xlink:href="#Inter-Italic-2193" transform="translate(1910.009766 0)"/>
    <use xlink:href="#Inter-Italic-29" transform="translate(1993.408203 0)"/>
    <use xlink:href="#Inter-Italic-2e" transform="translate(2029.833984 0)"/>
    <use xlink:href="#Inter-Italic-20" transform="translate(2058.59375 0)"/>
    <use xlink:href="#Inter-Italic-42" transform="translate(2086.71875 0)"/>
    <use xlink:href="#Inter-Italic-6f" transform="translate(2152.148438 0)"/>
    <use xlink:href="#Inter-Italic-74" transform="translate(2212.158203 0)"/>
    <use xlink:href="#Inter-Italic-68" transform="translate(2244.970703 0)"/>
    <use xlink:href="#Inter-Italic-20" transform="translate(2304.101562 0)"/>
    <use xlink:href="#Inter-Italic-6f" transform="translate(2332.226562 0)"/>
    <use xlink:href="#Inter-Italic-75" transform="translate(2392.236328 0)"/>
    <use xlink:href="#Inter-Italic-72" transform="translate(2451.416016 0)"/>
    <use xlink:href="#Inter-Italic-20" transform="translate(2489.111328 0)"/>
    <use xlink:href="#Inter-Italic-76" transform="translate(2517.236328 0)"/>
    <use xlink:href="#Inter-Italic-61" transform="translate(2573.4375 0)"/>
    <use xlink:href="#Inter-Italic-72" transform="translate(2634.814453 0)"/>
    <use xlink:href="#Inter-Italic-69" transform="translate(2672.509766 0)"/>
    <use xlink:href="#Inter-Italic-61" transform="translate(2696.777344 0)"/>
    <use xlink:href="#Inter-Italic-6e" transform="translate(2758.154297 0)"/>
    <use xlink:href="#Inter-Italic-74" transform="translate(2817.285156 0)"/>
    <use xlink:href="#Inter-Italic-73" transform="translate(2850.097656 0)"/>
    <use xlink:href="#Inter-Italic-20" transform="translate(2902.832031 0)"/>
    <use xlink:href="#Inter-Italic-6c" transform="translate(2930.957031 0)"/>
    <use xlink:href="#Inter-Italic-61" transform="translate(2955.175781 0)"/>
    <use xlink:href="#Inter-Italic-6e" transform="translate(3016.552734 0)"/>
    <use xlink:href="#Inter-Italic-64" transform="translate(3075.683594 0)"/>
    <use xlink:href="#Inter-Italic-20" transform="translate(3136.962891 0)"/>
    <use xlink:href="#Inter-Italic-6e" transform="translate(3165.087891 0)"/>
    <use xlink:href="#Inter-Italic-65" transform="translate(3224.21875 0)"/>
    <use xlink:href="#Inter-Italic-61" transform="translate(3281.787109 0)"/>
    <use xlink:href="#Inter-Italic-72" transform="translate(3343.164062 0)"/>
    <use xlink:href="#Inter-Italic-20" transform="translate(3380.859375 0)"/>
    <use xlink:href="#Inter-Italic-74" transform="translate(3408.984375 0)"/>
    <use xlink:href="#Inter-Italic-68" transform="translate(3441.796875 0)"/>
    <use xlink:href="#Inter-Italic-65" transform="translate(3500.927734 0)"/>
    <use xlink:href="#Inter-Italic-20" transform="translate(3558.496094 0)"/>
    <use xlink:href="#Inter-Italic-70" transform="translate(3586.621094 0)"/>
    <use xlink:href="#Inter-Italic-61" transform="translate(3647.900391 0)"/>
    <use xlink:href="#Inter-Italic-70" transform="translate(3709.277344 0)"/>
    <use xlink:href="#Inter-Italic-65" transform="translate(3770.556641 0)"/>
    <use xlink:href="#Inter-Italic-72" transform="translate(3828.125 0)"/>
    <use xlink:href="#Inter-Italic-27" transform="translate(3865.820312 0)"/>
    <use xlink:href="#Inter-Italic-73" transform="translate(3895.800781 0)"/>
    <use xlink:href="#Inter-Italic-20" transform="translate(3948.535156 0)"/>
    <use xlink:href="#Inter-Italic-50" transform="translate(3976.660156 0)"/>
    <use xlink:href="#Inter-Italic-61" transform="translate(4040.527344 0)"/>
    <use xlink:href="#Inter-Italic-72" transform="translate(4101.904297 0)"/>
    <use xlink:href="#Inter-Italic-65" transform="translate(4139.599609 0)"/>
    <use xlink:href="#Inter-Italic-74" transform="translate(4197.167969 0)"/>
    <use xlink:href="#Inter-Italic-6f" transform="translate(4229.980469 0)"/>
   </g>
   <!-- point, far from base SD's near-zero subject identity. -->
   <g style="fill: #1a1a2e" transform="translate(173.840625 652.7025) scale(0.18 -0.18)">
    <defs>
     <path id="Inter-Italic-2c" d="M -69 -1148 
L 499 624 
L 1143 624 
L 362 -1148 
L -69 -1148 
z
" transform="scale(0.015625)"/>
     <path id="Inter-Italic-53" d="M 1797 -81 
Q 1297 -81 940 80 
Q 584 241 409 534 
Q 234 828 272 1219 
L 881 1219 
Q 863 956 988 786 
Q 1113 616 1336 533 
Q 1559 450 1834 450 
Q 2150 450 2419 553 
Q 2688 656 2866 842 
Q 3044 1028 3084 1278 
Q 3122 1503 3020 1642 
Q 2919 1781 2725 1872 
Q 2531 1963 2288 2034 
L 1750 2194 
Q 1250 2341 967 2628 
Q 684 2916 763 3403 
Q 825 3797 1073 4094 
Q 1322 4391 1700 4555 
Q 2078 4719 2531 4719 
Q 2984 4719 3323 4558 
Q 3663 4397 3836 4117 
Q 4009 3838 3963 3481 
L 3384 3481 
Q 3400 3819 3147 4006 
Q 2894 4194 2475 4194 
Q 2172 4194 1931 4097 
Q 1691 4000 1537 3829 
Q 1384 3659 1347 3444 
Q 1306 3200 1429 3050 
Q 1553 2900 1748 2817 
Q 1944 2734 2109 2684 
L 2553 2556 
Q 2728 2506 2939 2420 
Q 3150 2334 3334 2190 
Q 3519 2047 3616 1822 
Q 3713 1597 3659 1269 
Q 3597 888 3361 581 
Q 3125 275 2731 97 
Q 2338 -81 1797 -81 
z
" transform="scale(0.015625)"/>
     <path id="Inter-Italic-7a" d="M 103 0 
L 175 419 
L 2525 2938 
L 2531 2972 
L 659 2972 
L 744 3494 
L 3366 3494 
L 3291 3047 
L 1003 556 
L 997 522 
L 2934 522 
L 2850 0 
L 103 0 
z
" transform="scale(0.015625)"/>
    </defs>
    <use xlink:href="#Inter-Italic-70"/>
    <use xlink:href="#Inter-Italic-6f" transform="translate(61.279297 0)"/>
    <use xlink:href="#Inter-Italic-69" transform="translate(121.289062 0)"/>
    <use xlink:href="#Inter-Italic-6e" transform="translate(145.556641 0)"/>
    <use xlink:href="#Inter-Italic-74" transform="translate(204.6875 0)"/>
    <use xlink:href="#Inter-Italic-2c" transform="translate(237.5 0)"/>
    <use xlink:href="#Inter-Italic-20" transform="translate(266.259766 0)"/>
    <use xlink:href="#Inter-Italic-66" transform="translate(294.384766 0)"/>
    <use xlink:href="#Inter-Italic-61" transform="translate(331.689453 0)"/>
    <use xlink:href="#Inter-Italic-72" transform="translate(393.066406 0)"/>
    <use xlink:href="#Inter-Italic-20" transform="translate(430.761719 0)"/>
    <use xlink:href="#Inter-Italic-66" transform="translate(458.886719 0)"/>
    <use xlink:href="#Inter-Italic-72" transform="translate(496.191406 0)"/>
    <use xlink:href="#Inter-Italic-6f" transform="translate(533.886719 0)"/>
    <use xlink:href="#Inter-Italic-6d" transform="translate(593.896484 0)"/>
    <use xlink:href="#Inter-Italic-20" transform="translate(681.494141 0)"/>
    <use xlink:href="#Inter-Italic-62" transform="translate(709.619141 0)"/>
    <use xlink:href="#Inter-Italic-61" transform="translate(770.898438 0)"/>
    <use xlink:href="#Inter-Italic-73" transform="translate(832.275391 0)"/>
    <use xlink:href="#Inter-Italic-65" transform="translate(885.009766 0)"/>
    <use xlink:href="#Inter-Italic-20" transform="translate(942.578125 0)"/>
    <use xlink:href="#Inter-Italic-53" transform="translate(970.703125 0)"/>
    <use xlink:href="#Inter-Italic-44" transform="translate(1034.765625 0)"/>
    <use xlink:href="#Inter-Italic-27" transform="translate(1106.884766 0)"/>
    <use xlink:href="#Inter-Italic-73" transform="translate(1136.865234 0)"/>
    <use xlink:href="#Inter-Italic-20" transform="translate(1189.599609 0)"/>
    <use xlink:href="#Inter-Italic-6e" transform="translate(1217.724609 0)"/>
    <use xlink:href="#Inter-Italic-65" transform="translate(1276.855469 0)"/>
    <use xlink:href="#Inter-Italic-61" transform="translate(1334.423828 0)"/>
    <use xlink:href="#Inter-Italic-72" transform="translate(1395.800781 0)"/>
    <use xlink:href="#Inter-Italic-2d" transform="translate(1433.496094 0)"/>
    <use xlink:href="#Inter-Italic-7a" transform="translate(1479.589844 0)"/>
    <use xlink:href="#Inter-Italic-65" transform="translate(1534.814453 0)"/>
    <use xlink:href="#Inter-Italic-72" transform="translate(1592.382812 0)"/>
    <use xlink:href="#Inter-Italic-6f" transform="translate(1630.078125 0)"/>
    <use xlink:href="#Inter-Italic-20" transform="translate(1690.087891 0)"/>
    <use xlink:href="#Inter-Italic-73" transform="translate(1718.212891 0)"/>
    <use xlink:href="#Inter-Italic-75" transform="translate(1770.947266 0)"/>
    <use xlink:href="#Inter-Italic-62" transform="translate(1830.126953 0)"/>
    <use xlink:href="#Inter-Italic-6a" transform="translate(1891.40625 0)"/>
    <use xlink:href="#Inter-Italic-65" transform="translate(1915.625 0)"/>
    <use xlink:href="#Inter-Italic-63" transform="translate(1973.193359 0)"/>
    <use xlink:href="#Inter-Italic-74" transform="translate(2030.371094 0)"/>
    <use xlink:href="#Inter-Italic-20" transform="translate(2063.183594 0)"/>
    <use xlink:href="#Inter-Italic-69" transform="translate(2091.308594 0)"/>
    <use xlink:href="#Inter-Italic-64" transform="translate(2115.576172 0)"/>
    <use xlink:href="#Inter-Italic-65" transform="translate(2176.855469 0)"/>
    <use xlink:href="#Inter-Italic-6e" transform="translate(2234.423828 0)"/>
    <use xlink:href="#Inter-Italic-74" transform="translate(2293.554688 0)"/>
    <use xlink:href="#Inter-Italic-69" transform="translate(2326.367188 0)"/>
    <use xlink:href="#Inter-Italic-74" transform="translate(2350.634766 0)"/>
    <use xlink:href="#Inter-Italic-79" transform="translate(2383.447266 0)"/>
    <use xlink:href="#Inter-Italic-2e" transform="translate(2439.648438 0)"/>
   </g>
  </g>
 </g>
 <defs>
  <clipPath id="p43db84e62f">
   <rect x="79.2" y="123.12" width="665.28" height="396.72"/>
  </clipPath>
 </defs>
</svg>
